<svg width="33" height="34" viewBox="0 0 33 34" fill="none" xmlns="http://www.w3.org/2000/svg">
<g id="dashicons:email-alt">
<path id="Vector" d="M31.35 24.425V9.57498C31.35 8.20548 30.2445 7.09998 28.875 7.09998H5.75851C4.38901 7.09998 3.28351 8.20548 3.28351 9.57498V24.425C3.28351 25.7945 4.38901 26.9 5.75851 26.9H28.875C30.2445 26.9 31.35 25.7945 31.35 24.425ZM29.1885 9.39348C29.733 9.93798 29.436 10.499 29.139 10.7795L22.44 16.9175L28.875 23.6165C29.073 23.8475 29.205 24.2105 28.974 24.458C28.7595 24.722 28.2645 24.7055 28.05 24.5405L20.8395 18.386L17.3085 21.6035L13.794 18.386L6.58351 24.5405C6.36901 24.7055 5.87401 24.722 5.65951 24.458C5.42851 24.2105 5.56051 23.8475 5.75851 23.6165L12.1935 16.9175L5.49451 10.7795C5.19751 10.499 4.90051 9.93798 5.44501 9.39348C5.98951 8.84898 6.55051 9.11298 7.01251 9.50898L17.3085 17.825L27.621 9.50898C28.083 9.11298 28.644 8.84898 29.1885 9.39348Z" fill="url(#paint0_linear_1438_2149)"/>
</g>
<defs>
<linearGradient id="paint0_linear_1438_2149" x1="17.3168" y1="7.09998" x2="17.3168" y2="26.9" gradientUnits="userSpaceOnUse">
<stop stop-color="#8AE3FF"/>
<stop offset="1" stop-color="#00A3FF"/>
</linearGradient>
</defs>
</svg>
