<svg width="36" height="36" viewBox="0 0 36 36" fill="none" xmlns="http://www.w3.org/2000/svg">
<g id="icons8-instagram">
<path id="Vector" d="M31.2954 10.3292C31.0037 10.5187 30.5881 10.6937 30.4131 10.8906C30.3475 10.9562 30.311 11.0292 30.3256 11.1021V11.8531L30.1069 12.5896L29.8881 13.3187L29.6475 14.1208L29.1516 15.7615L28.6704 17.3802L28.3058 18.5979C28.3058 18.7875 28.2985 18.9771 28.2839 19.1594C28.2329 19.8594 28.0871 20.5302 27.8537 21.1573C27.7152 21.5437 27.5475 21.9156 27.3433 22.2656C27.2704 22.4042 27.1829 22.5427 27.0954 22.674C26.8037 23.1333 26.4537 23.5562 26.0673 23.9281C25.7683 24.2271 25.4402 24.5042 25.0829 24.7375C25.0829 24.7375 25.0829 24.7375 25.0756 24.7375C25.0173 24.7885 24.9516 24.8323 24.8787 24.8687C24.6527 25.0219 24.4121 25.1531 24.1641 25.2698C23.9964 25.3573 23.8287 25.4302 23.6537 25.4958C23.6173 25.5177 23.5735 25.5323 23.5371 25.5469C23.1214 25.7437 22.6402 25.875 22.1589 25.9406C22.1298 25.9479 22.1079 25.9479 22.0787 25.9552C21.7871 26.0062 21.5027 26.05 21.211 26.0719C21.0798 26.0865 20.9412 26.0937 20.81 26.0937L20.2923 26.0646L17.7985 25.9333C17.7985 25.926 17.7912 25.9333 17.7912 25.9333L16.5371 25.8677C16.4423 25.8677 16.3402 25.8677 16.2454 25.8604C15.8516 25.8458 15.4725 25.8021 15.0933 25.7219C15.086 25.7219 15.086 25.7219 15.086 25.7219C14.3933 25.5906 13.7298 25.3573 13.11 25.0437C12.7673 24.8687 12.4319 24.6719 12.1183 24.4458C11.9871 24.351 11.8631 24.249 11.7391 24.1396C11.3891 23.8479 11.0756 23.5344 10.7839 23.2135C10.7402 23.1698 10.7037 23.126 10.6673 23.0823C10.6235 23.0385 10.5798 22.9875 10.5433 22.9438C10.2662 22.5938 10.0329 22.2365 9.84331 21.8573C9.66831 21.5219 9.52977 21.1646 9.4204 20.7708C9.37665 20.6323 9.34019 20.501 9.31102 20.3552C9.30373 20.3479 9.29644 20.3333 9.29644 20.3187C9.22352 20.0198 9.1579 19.7062 9.12144 19.3927C9.07769 19.1521 9.05581 18.9115 9.05581 18.6635C9.04123 18.5687 9.04123 18.4667 9.04123 18.3719L10.4339 16.2208L11.7975 14.1208L12.4173 13.1656L12.9787 12.3052L13.1683 12.0062V11.2552C13.1829 11.0875 13.1902 10.9125 13.1829 10.7521C13.1756 10.2417 13.0735 9.74583 12.9058 9.27187C12.7454 8.76875 12.5194 8.29479 12.286 7.85729C12.0089 7.35417 11.7173 6.90208 11.4766 6.49375C11.1194 5.89583 10.8714 5.40729 10.9371 5.06458C11.4621 4.94063 12.0162 4.875 12.5777 4.875H24.2444C27.2923 4.875 29.9173 6.77083 31.0037 9.43958C31.1204 9.72396 31.2225 10.0229 31.2954 10.3292Z" fill="#304FFE"/>
<path id="Vector_2" d="M31.536 12.1667V12.3635L30.5298 12.9469L29.8881 13.3188L29.1808 13.7271L27.7662 14.551L26.3808 15.3531L24.9662 16.1698L24.4048 16.4979C24.4048 16.8479 24.3173 17.1688 24.1569 17.4604C23.9308 17.8833 23.5517 18.2333 23.0704 18.5323C22.5819 18.8313 21.9839 19.0719 21.3131 19.2469C21.3131 19.2469 21.3131 19.2396 21.3058 19.2469C18.71 19.9177 15.1662 19.6115 13.4454 18.3281C12.9642 17.9708 12.6287 17.5333 12.4829 17.0302C12.4392 16.8625 12.4173 16.6802 12.4173 16.4979V11.2552C12.4246 11.1458 12.3517 11.0365 12.2204 10.9271C11.8267 10.6135 10.9006 10.3146 9.86519 10.0156C9.05582 9.78958 8.18811 9.56354 7.45894 9.34479C6.8829 9.16979 6.39436 8.99479 6.10269 8.82708C6.23394 8.57188 6.38707 8.31667 6.54748 8.07604C7.56832 6.58125 9.12873 5.48021 10.9371 5.06458C11.4621 4.94063 12.0162 4.875 12.5777 4.875H20.4527C24.3683 5.56042 27.9777 7.15729 31.0037 9.43958C31.1204 9.72396 31.2225 10.0229 31.2954 10.3292C31.4267 10.8104 31.5069 11.3063 31.5287 11.824C31.536 11.9333 31.536 12.05 31.536 12.1667Z" fill="#4928F4"/>
<path id="Vector_3" d="M31.536 12.1666V15.3822L31.3756 15.8781L30.8287 17.577L30.26 19.327L29.961 20.2604L29.6839 21.1281L29.4141 21.952L29.1516 22.7687L29.0131 23.1989L28.8308 23.7677C28.8308 24.3218 28.8162 24.8104 28.7798 25.226C28.7725 25.2697 28.7652 25.3135 28.7652 25.3572C28.7214 25.7437 28.6631 26.0718 28.5683 26.3489C28.561 26.3927 28.5464 26.4364 28.5318 26.4729C28.3423 26.9979 28.0579 27.3333 27.635 27.552C27.5329 27.6104 27.4162 27.6541 27.2923 27.6979C26.9058 27.8291 26.4173 27.8947 25.8193 27.9312C25.3818 27.9604 24.8787 27.9677 24.31 27.9677H23.8068L22.9391 27.9312L22.786 27.9239L21.2037 27.8583L19.5996 27.7927L14.3131 27.5739L12.9423 27.5156H12.7527C12.1839 27.5083 11.6954 27.4718 11.2725 27.4135C10.66 27.3187 10.186 27.1583 9.82872 26.9177C9.31831 26.5895 9.01935 26.1083 8.84435 25.4375C8.8006 25.277 8.76414 25.1093 8.74226 24.927C8.66935 24.5041 8.63289 24.0156 8.61102 23.4687C8.61102 23.3593 8.61102 23.25 8.60372 23.1333C8.59643 23.126 8.60372 23.126 8.60372 23.126V22.7031C8.59643 22.4916 8.59643 22.2729 8.59643 22.0468L8.63289 20.8729L8.65476 20.0343L8.68393 19.0572V18.9187L8.73497 17.125L8.78602 15.3312L8.83706 13.6468L8.88081 11.9916L8.89539 11.5541C8.89539 11.3281 8.12976 11.1968 7.27664 11.0875C6.59851 11 5.85476 10.9197 5.40997 10.8177C5.44643 10.65 5.48289 10.4822 5.52664 10.3218C5.65789 9.79683 5.85476 9.30099 6.10268 8.82703C6.23393 8.57183 6.38706 8.31662 6.54747 8.07599C8.12247 7.38328 9.7631 6.8437 11.4766 6.4937C12.9787 6.18016 14.5464 6.01245 16.1652 6.01245C21.5318 6.01245 26.4902 7.82808 30.4131 10.8906C30.7923 11.1822 31.1641 11.4958 31.5287 11.8239C31.536 11.9333 31.536 12.05 31.536 12.1666Z" fill="#6200EA"/>
<path id="Vector_4" d="M31.536 13.8948V17.2052L31.135 17.9782L30.3693 19.4729L29.961 20.2605L29.5891 20.9823L29.4287 21.2959C29.4287 21.5219 29.4287 21.7407 29.4141 21.9521C29.4141 22.2657 29.3996 22.5646 29.3777 22.8417C29.3485 23.1698 29.3048 23.4688 29.261 23.7459C29.1516 24.3219 28.9985 24.8177 28.7798 25.2261C28.7506 25.2771 28.7214 25.3282 28.6923 25.3719C28.6121 25.5032 28.5173 25.6271 28.4152 25.7438C28.2839 25.9042 28.1381 26.0427 27.9704 26.1594C27.7225 26.349 27.4308 26.5021 27.0954 26.6188C26.6798 26.7719 26.1985 26.874 25.6298 26.9323C25.2579 26.9688 24.8496 26.9907 24.4048 26.9907L24.0985 27.0052L22.5818 27.0927H22.5746L20.9631 27.1875L19.3225 27.2823L17.0621 27.4136L14.3131 27.574L13.9121 27.5959C13.5402 27.5959 13.1902 27.574 12.8548 27.5302C12.8183 27.5229 12.7891 27.5157 12.7527 27.5157C12.2568 27.4354 11.8048 27.3042 11.3964 27.1219C10.9006 26.9032 10.4704 26.6115 10.1058 26.2615C9.78497 25.948 9.50789 25.5907 9.28184 25.1896C9.2308 25.0948 9.17976 25.0073 9.13601 24.9052C8.91726 24.475 8.74226 23.9938 8.61101 23.4688C8.58914 23.3813 8.56726 23.2865 8.55268 23.1917C8.50893 23.024 8.47247 22.849 8.45059 22.6667C8.37039 22.2 8.32664 21.7042 8.30476 21.1865V21.1792C8.29747 20.9677 8.29018 20.7636 8.29018 20.5448L7.93289 19.6917L7.88184 19.5604L7.83809 19.4511L7.29122 18.1459L7.20372 17.9344L6.67872 16.6729L6.09539 15.2657C6.09539 15.2657 6.09539 15.2657 6.08809 15.2657L5.49747 13.8438L5.28601 13.3261V12.1667C5.28601 11.7073 5.32976 11.2552 5.40997 10.8177C5.44643 10.65 5.48289 10.4823 5.52664 10.3219C6.14643 9.96462 6.79539 9.63649 7.45893 9.34482C8.97559 8.6667 10.6016 8.16357 12.286 7.85732C13.5402 7.63128 14.8454 7.50732 16.1652 7.50732C21.4954 7.50732 26.3298 9.43962 30.1068 12.5896C30.2527 12.7063 30.3912 12.8229 30.5298 12.9469C30.8725 13.2459 31.2079 13.5594 31.536 13.8948Z" fill="#673AB7"/>
<path id="Vector_5" d="M31.536 16.0677V19.8156L31.1204 20.6834L30.3329 22.324L30.3256 22.3459C30.3256 22.6594 30.311 22.9438 30.2891 23.199C30.2162 24.0375 30.0121 24.5698 29.6766 24.8979C29.436 25.1459 29.1371 25.2844 28.7652 25.3573C28.7433 25.3646 28.7141 25.3646 28.6923 25.3719C28.5756 25.3938 28.4516 25.4084 28.3204 25.4084C27.8683 25.4521 27.336 25.4229 26.7235 25.3792C26.6579 25.3792 26.585 25.3719 26.5121 25.3646C26.0673 25.3354 25.5933 25.3063 25.0683 25.2844C24.7839 25.2771 24.485 25.2698 24.1787 25.2698H24.1641L23.4277 25.3281H23.4204L21.7652 25.4448L19.8766 25.5907L19.5996 25.6125L17.3902 25.7729L16.2454 25.8604L15.1152 25.9406C14.9183 25.9406 14.7287 25.9407 14.5391 25.9334C14.5391 25.9334 14.5318 25.9261 14.5318 25.9334C13.7079 25.9188 12.9714 25.8677 12.3152 25.7438C11.71 25.6417 11.1777 25.4813 10.7256 25.2407C10.2589 25.0146 9.87247 24.6938 9.55893 24.2854C9.25997 23.8844 9.04122 23.3813 8.90268 22.7761C8.90268 22.7688 8.90268 22.7688 8.90268 22.7688C8.80059 22.2802 8.74226 21.7115 8.74226 21.0698L8.63289 20.8729L7.98393 19.7136L7.88914 19.5531L7.83809 19.4511L7.15997 18.2479L6.82455 17.6427L6.40164 16.8917L5.67247 15.5865L5.28601 14.9011V12.2177C5.92768 11.7948 6.59122 11.4229 7.27664 11.0875C8.10789 10.6646 8.9683 10.3073 9.86518 10.0156C10.8423 9.69482 11.8631 9.43961 12.9058 9.2719C13.9631 9.0969 15.0496 9.0094 16.1652 9.0094C21.1235 9.0094 25.6735 10.7813 29.1808 13.7271C29.3412 13.8511 29.4943 13.9896 29.6475 14.1209C30.26 14.6677 30.8433 15.2584 31.3756 15.8781C31.4339 15.9438 31.4923 16.0021 31.536 16.0677Z" fill="#8E24AA"/>
<path id="Vector_6" d="M31.536 18.5177V23.7896C31.361 23.6875 31.1204 23.5635 30.8214 23.4323C30.661 23.3521 30.4787 23.2719 30.2891 23.1989C30.0121 23.075 29.7131 22.9583 29.3777 22.8416C29.3048 22.8125 29.2318 22.7906 29.1516 22.7687C29.0204 22.7177 28.8818 22.6739 28.7433 22.6302C28.3131 22.4989 27.8391 22.375 27.3433 22.2656C27.1537 22.2292 26.9568 22.1927 26.76 22.1635C26.1256 22.0541 25.4475 21.9885 24.7402 21.9812C24.6818 21.9739 24.6162 21.9739 24.5579 21.9739L22.6839 21.9885L20.1318 22.0031H20.1246L14.6631 22.0469C12.9277 22.0469 11.8631 22.4625 11.2214 22.6302C11.2214 22.6302 11.2141 22.6302 11.2141 22.6375C10.536 22.8125 10.3246 22.7031 10.2662 21.5146C10.2516 21.1864 10.2443 20.7635 10.2443 20.2458L9.83601 19.9323L9.12143 19.3927L8.68393 19.0573L8.59643 18.9917L7.38601 18.0729L7.20372 17.9344L6.82455 17.6427L6.12455 17.1177L5.28601 16.476V13.9969C5.35893 13.9385 5.42455 13.8875 5.49747 13.8437C6.55476 13.1146 7.68497 12.4948 8.8808 11.9917C9.94539 11.5396 11.0683 11.1823 12.2204 10.9271C12.5339 10.8614 12.8548 10.7958 13.1829 10.7521C14.1527 10.5844 15.1516 10.5042 16.1652 10.5042C20.5475 10.5042 24.5725 12.0281 27.7662 14.551C28.2475 14.9302 28.7141 15.3312 29.1516 15.7614C29.7496 16.3302 30.311 16.9354 30.8287 17.5771C30.9308 17.7083 31.0329 17.8396 31.135 17.9781C31.2735 18.1531 31.4048 18.3354 31.536 18.5177Z" fill="#C2185B"/>
<path id="Vector_7" d="M31.536 21.4416V23.8333C31.536 24.3073 31.4923 24.7739 31.4048 25.226C31.2735 25.8969 31.0475 26.5385 30.7412 27.1364C30.5808 27.1729 30.3985 27.1729 30.1943 27.1437C29.735 27.0635 29.1954 26.8229 28.6121 26.5094C28.5829 26.5021 28.5537 26.4875 28.5318 26.4729C28.3496 26.3781 28.16 26.276 27.9704 26.1594C27.5839 25.9479 27.1756 25.7146 26.7673 25.4958C26.6798 25.4521 26.5923 25.4083 26.5121 25.3646C26.0454 25.1239 25.5641 24.9052 25.0829 24.7375C25.0829 24.7375 25.0829 24.7375 25.0756 24.7375C24.9735 24.701 24.8641 24.6646 24.7548 24.6354C24.3391 24.5187 23.9162 24.4458 23.5079 24.4458L22.7058 24.2125L19.1548 23.1844C19.1548 23.1844 19.1548 23.1844 19.1475 23.1844L16.9673 22.55H16.96L16.0121 22.2729C13.2704 22.2729 11.586 23.4396 10.7693 22.9948C10.4485 22.8271 10.2589 22.4041 10.1933 21.5729C10.1714 21.3396 10.1641 21.0771 10.1641 20.7708L9.31101 20.3552L9.27455 20.3406H9.26726L8.65476 20.0344L7.98393 19.7135L7.93289 19.6916L7.80893 19.626L6.37976 18.9333L5.28601 18.401V15.9C5.40997 15.7906 5.54122 15.6885 5.67247 15.5864C5.81101 15.4771 5.94955 15.375 6.08809 15.2656C6.09539 15.2656 6.09539 15.2656 6.09539 15.2656C6.9558 14.6458 7.86726 14.0989 8.83705 13.6469C9.96726 13.1073 11.1704 12.6916 12.4173 12.4219C12.5996 12.3781 12.7891 12.3344 12.9787 12.3052C14.0141 12.1083 15.0787 12.0062 16.1652 12.0062C20.0079 12.0062 23.5371 13.2531 26.3808 15.3531C27.2048 15.9656 27.9704 16.6437 28.6704 17.3802C29.2464 17.9854 29.7787 18.6416 30.26 19.3271C30.2964 19.3781 30.3329 19.4291 30.3693 19.4729C30.6391 19.8666 30.8871 20.2677 31.1204 20.6833C31.2735 20.9312 31.4048 21.1864 31.536 21.4416Z" fill="#D81B60"/>
<path id="Vector_8" d="M31.4048 25.2261C31.2735 25.8969 31.0475 26.5386 30.7412 27.1365C30.6027 27.4063 30.4496 27.6615 30.2818 27.9094C30.1798 28.0626 30.0704 28.2084 29.961 28.3469C29.6985 28.2448 29.3121 28.099 28.8381 27.9386C28.8381 27.9386 28.8381 27.9386 28.8381 27.9313C28.4808 27.8073 28.0725 27.6761 27.635 27.5521C27.511 27.5157 27.3871 27.4792 27.2558 27.4428C26.7381 27.3042 26.1985 27.1803 25.6735 27.1074C25.236 27.0344 24.8058 26.9907 24.4048 26.9907L24.0693 26.8959H24.0621L22.2975 26.3855L21.211 26.0719L20.0006 25.7219H19.9933L19.5996 25.6126L14.8381 24.2417L13.4673 23.848L12.4464 23.6073L10.7839 23.2136L10.5798 23.1626C10.5798 23.1626 10.5798 23.1626 10.5725 23.1626L8.90268 22.7761C8.90268 22.7688 8.90268 22.7688 8.90268 22.7688L8.60372 22.7032L8.45059 22.6667L7.23289 22.3823L7.09434 22.3459L6.05893 21.4928L5.28601 20.8438V17.8688C5.5558 17.6063 5.83289 17.3584 6.12455 17.1178C6.21205 17.0376 6.30684 16.9646 6.40164 16.8917C6.48914 16.8188 6.58393 16.7459 6.67872 16.673C7.34226 16.1698 8.04226 15.7178 8.78601 15.3313C9.73393 14.8209 10.7402 14.4126 11.7975 14.1209C12.0016 14.0553 12.2058 13.9969 12.4173 13.9532C13.6131 13.6542 14.8673 13.5011 16.1652 13.5011C19.4246 13.5011 22.4579 14.4855 24.9662 16.1698C26.2131 17.0084 27.336 18.0146 28.2839 19.1594C28.7652 19.7355 29.2027 20.3407 29.5891 20.9823C29.6256 21.0334 29.6548 21.0771 29.6839 21.1282C29.9173 21.5146 30.136 21.9157 30.3329 22.324C30.5152 22.6886 30.6756 23.0532 30.8214 23.4323C31.0548 24.0157 31.2443 24.6136 31.4048 25.2261Z" fill="#F50057"/>
<path id="Vector_9" d="M30.2818 27.9094C30.1798 28.0625 30.0704 28.2084 29.961 28.3469C29.6402 28.748 29.2902 29.1125 28.8964 29.4334C28.5537 29.7178 28.1891 29.973 27.8027 30.1917C27.6568 30.1553 27.511 30.1115 27.3579 30.0532C26.8766 29.8855 26.3735 29.6084 25.9068 29.3167C25.2068 28.8719 24.6016 28.3907 24.3318 28.1719C24.2298 28.0844 24.1787 28.0407 24.1787 28.0407L22.9391 27.9313L22.786 27.9167L21.1818 27.7782L19.5193 27.6323L17.0621 27.4136L13.1683 27.0709L13.1537 27.0636L11.7829 26.4001L10.3975 25.7292L9.28184 25.1896L9.04122 25.073L8.74226 24.9271L7.70684 24.424L6.32872 23.7605L5.89851 23.549L5.28601 23.3594V20.1C5.62872 19.6917 5.9933 19.3053 6.37976 18.9334C6.62768 18.7 6.89018 18.4667 7.15997 18.248C7.20372 18.2115 7.24747 18.1751 7.29122 18.1459C7.32039 18.1094 7.35684 18.0875 7.38601 18.073C7.81622 17.723 8.2683 17.4094 8.73497 17.125C9.27455 16.7823 9.8433 16.4761 10.4339 16.2209C11.0683 15.9365 11.7318 15.6959 12.4173 15.5136C13.6058 15.1782 14.8673 15.0032 16.1652 15.0032C19.1402 15.0032 21.8891 15.9073 24.1568 17.4605C25.6079 18.4521 26.8621 19.7063 27.8537 21.1573C28.1818 21.624 28.4735 22.1198 28.7433 22.6303C28.8381 22.8198 28.9329 23.0094 29.0131 23.199C29.1006 23.3813 29.1808 23.5636 29.261 23.7459C29.4141 24.125 29.5527 24.5042 29.6766 24.898C29.91 25.6271 30.085 26.3709 30.1943 27.1438C30.2308 27.399 30.26 27.6542 30.2818 27.9094Z" fill="#FF1744"/>
<path id="Vector_10" d="M28.9037 29.2438C28.9037 29.3021 28.9037 29.3677 28.8964 29.4333C28.5537 29.7177 28.1891 29.9729 27.8027 30.1917C27.6423 30.2792 27.4818 30.3667 27.3141 30.4396C27.1464 30.5198 26.9787 30.5927 26.8037 30.6583C26.5558 30.5271 26.2204 30.3667 25.8631 30.2135C25.36 29.9875 24.8131 29.7833 24.3902 29.7177C24.2881 29.6958 24.1933 29.6885 24.1058 29.6885L22.91 29.5354H22.8954L21.4079 29.3385L19.9058 29.1417L19.2058 29.0542L13.6933 28.3396C13.336 28.3396 12.9568 28.3177 12.5631 28.2667C12.0818 28.2229 11.5787 28.15 11.0756 28.0479C10.5798 27.9604 10.0766 27.8438 9.59539 27.7198C9.09226 27.6031 8.59643 27.4646 8.13705 27.3333C7.60476 27.1729 7.10893 27.0198 6.6933 26.8813C6.35059 26.7719 6.05893 26.6698 5.83289 26.5896C5.70164 26.276 5.59226 25.9479 5.51205 25.6125C5.35893 25.0438 5.28601 24.4458 5.28601 23.8333V22.6156C5.51934 22.2292 5.77455 21.85 6.05893 21.4927C6.57664 20.8073 7.16726 20.1802 7.80893 19.626C7.8308 19.5969 7.85997 19.575 7.88184 19.5604L7.88914 19.5531C8.11518 19.349 8.34851 19.1667 8.59643 18.9917C8.62559 18.9625 8.65476 18.9406 8.68393 18.9188C8.80059 18.8313 8.92455 18.7438 9.0558 18.6635C10.0985 17.9563 11.2506 17.4021 12.4829 17.0302C13.6496 16.6802 14.8818 16.4979 16.1652 16.4979C18.71 16.4979 21.0871 17.249 23.0704 18.5323C24.536 19.4729 25.7975 20.7125 26.76 22.1635C26.8766 22.3313 26.986 22.499 27.0954 22.674C27.5985 23.5271 28.0141 24.4458 28.3204 25.4083C28.3568 25.5177 28.386 25.6271 28.4152 25.7438C28.4735 25.9406 28.5246 26.1448 28.5683 26.349C28.5829 26.4 28.5975 26.451 28.6121 26.5094C28.7141 26.9688 28.7871 27.45 28.8381 27.9313C28.8381 27.9385 28.8381 27.9386 28.8381 27.9386C28.8818 28.3688 28.9037 28.8063 28.9037 29.2438Z" fill="#FF5722"/>
<path id="Vector_11" d="M27.4016 29.2437C27.4016 29.499 27.3871 29.776 27.3579 30.0531C27.3433 30.1844 27.3287 30.3156 27.3141 30.4396C27.1464 30.5198 26.9787 30.5927 26.8037 30.6583C26.4756 30.7823 26.1402 30.8844 25.7975 30.9573C25.5641 31.0083 25.3235 31.0521 25.0829 31.074H25.0756C24.8496 30.9354 24.5871 30.7677 24.3173 30.5781C23.8287 30.2354 23.3183 29.849 22.91 29.5354C22.9027 29.5281 22.9027 29.5281 22.8954 29.5208C22.4652 29.1927 22.1589 28.9448 22.1589 28.9448L21.386 28.974L19.8985 29.025L19.2058 29.0542L16.4204 29.1562L14.0652 29.2437C13.9121 29.251 13.7298 29.251 13.5037 29.2437H13.4964C13.1902 29.2365 12.8256 29.2146 12.4246 29.1781C11.9579 29.1417 11.4475 29.0979 10.9298 29.0469C10.4266 28.9885 9.91622 28.9302 9.42768 28.8719C8.8881 28.8135 8.37768 28.7479 7.94018 28.6896C7.59747 28.6458 7.29851 28.6094 7.05789 28.5802C6.85372 28.3469 6.67143 28.1062 6.49643 27.8438C6.23393 27.45 6.00789 27.0344 5.83289 26.5896C5.70164 26.276 5.59226 25.9479 5.51205 25.6125C5.72351 24.9635 6.0006 24.351 6.32872 23.7604C6.59122 23.2792 6.89747 22.8198 7.23289 22.3823C7.56101 21.9521 7.9183 21.551 8.30476 21.1865V21.1792C8.41414 21.0698 8.52351 20.9677 8.63289 20.8729C8.83705 20.6833 9.04851 20.5083 9.26726 20.3406H9.27455C9.28185 20.326 9.28914 20.326 9.29643 20.3188C9.47143 20.1802 9.65372 20.0562 9.83601 19.9323C10.9152 19.1958 12.1329 18.649 13.4454 18.3281C14.3131 18.1167 15.2246 18 16.1652 18C18.0173 18 19.7673 18.4448 21.3058 19.2469H21.3131C22.6329 19.925 23.7996 20.8583 24.7402 21.9812C25.2579 22.5792 25.7027 23.2354 26.0673 23.9281C26.3225 24.3948 26.5412 24.8833 26.7235 25.3792C26.7381 25.4229 26.7527 25.4594 26.7673 25.4958C26.8912 25.8604 27.0006 26.2396 27.0954 26.6187C27.161 26.8885 27.2121 27.1656 27.2558 27.4427C27.2704 27.5302 27.285 27.6104 27.2923 27.6979C27.3652 28.201 27.4016 28.7187 27.4016 29.2437Z" fill="#FF6F00"/>
<path id="Vector_12" d="M25.9068 29.2437V29.3167C25.9068 29.5646 25.885 29.8781 25.8631 30.2135C25.8412 30.4615 25.8193 30.7167 25.7975 30.9573C25.5641 31.0083 25.3235 31.0521 25.0829 31.074H25.0756C24.7985 31.1104 24.5287 31.125 24.2443 31.125H22.9683L22.6912 31.0448L21.2548 30.6073L19.7964 30.1698L16.4204 29.1562L14.9621 28.7187C14.9621 28.7187 14.3568 28.9594 13.5037 29.2437H13.4964C13.1683 29.3531 12.811 29.4698 12.4318 29.5865C11.9579 29.725 11.4548 29.8635 10.9589 29.9729C10.4485 30.0896 9.94539 30.1771 9.4933 30.2135C9.35476 30.2281 9.21622 30.2354 9.09226 30.2354C8.68393 30.0094 8.29018 29.7396 7.93289 29.4406C7.61935 29.1781 7.32768 28.8937 7.05789 28.5802C6.85372 28.3469 6.67143 28.1062 6.49643 27.8437C6.54747 27.5156 6.6058 27.1948 6.6933 26.8812C6.91205 26.0135 7.25476 25.1823 7.70685 24.424C7.95476 23.9937 8.23185 23.5781 8.55268 23.1917C8.55997 23.1698 8.58185 23.1479 8.60372 23.1333C8.59643 23.126 8.60372 23.126 8.60372 23.126C8.69851 23.0021 8.8006 22.8854 8.90268 22.776C8.90268 22.7687 8.90268 22.7687 8.90268 22.7687C9.20164 22.4479 9.50789 22.1417 9.8433 21.8573C9.95997 21.7625 10.0693 21.6677 10.1933 21.5729C10.2152 21.551 10.2371 21.5365 10.2662 21.5146C11.9068 20.2604 13.9558 19.5021 16.1652 19.5021C18.6735 19.5021 20.9558 20.4427 22.6839 21.9885C23.5152 22.7396 24.2225 23.6364 24.7548 24.6354C24.7985 24.7083 24.8423 24.7885 24.8787 24.8687C24.9443 25 25.01 25.1385 25.0683 25.2844C25.3089 25.8094 25.4985 26.3635 25.6298 26.9323C25.6443 26.9906 25.6589 27.049 25.6735 27.1073C25.7318 27.3771 25.7829 27.6542 25.8193 27.9312C25.8777 28.3615 25.9068 28.7989 25.9068 29.2437Z" fill="#FF9800"/>
<path id="Vector_13" d="M24.4048 29.2437C24.4048 29.3895 24.3975 29.5499 24.3902 29.7177C24.3756 29.9874 24.3537 30.2791 24.3173 30.5781C24.3027 30.7604 24.2735 30.9427 24.2443 31.125H20.2485L19.4756 31.001L16.4568 30.5197L16.0266 30.4541L15.0423 30.2937C14.6121 30.2937 13.6787 30.4833 12.6943 30.6656C12.1766 30.7604 11.6516 30.8624 11.1777 30.9281C11.1193 30.9354 11.061 30.9427 11.01 30.9499H11.0027C10.4923 30.8406 9.99643 30.6729 9.52976 30.4541C9.38393 30.3885 9.2381 30.3156 9.09226 30.2354C8.68393 30.0093 8.29018 29.7395 7.93289 29.4406C7.9256 29.3531 7.9183 29.2802 7.9183 29.2437C7.9183 29.0541 7.9256 28.8718 7.94018 28.6895C7.96935 28.2229 8.03497 27.7708 8.13705 27.3333C8.29747 26.6697 8.5308 26.0281 8.84435 25.4375C8.90268 25.3135 8.9683 25.1895 9.04122 25.0729C9.07039 25.0145 9.10685 24.9635 9.13601 24.9052C9.26726 24.6937 9.4131 24.4895 9.55893 24.2854C9.86518 23.8843 10.2079 23.5052 10.5725 23.1625C10.5798 23.1625 10.5798 23.1625 10.5798 23.1625C10.6089 23.1333 10.6381 23.1041 10.6673 23.0822C10.7037 23.0531 10.7329 23.0166 10.7693 22.9947C10.9152 22.8635 11.061 22.7468 11.2141 22.6375C11.2141 22.6302 11.2214 22.6302 11.2214 22.6302C12.5996 21.602 14.3058 20.9968 16.1652 20.9968C17.6089 20.9968 18.9506 21.3614 20.1246 22.0031H20.1318C21.1381 22.5572 22.0131 23.3083 22.7058 24.2125C22.9756 24.5625 23.2162 24.9343 23.4204 25.3281H23.4277C23.4641 25.401 23.5006 25.4739 23.5371 25.5468C23.7558 25.977 23.9308 26.4291 24.0621 26.8958H24.0693C24.0766 26.9322 24.0912 26.9687 24.0985 27.0052C24.186 27.3187 24.2589 27.6395 24.31 27.9677C24.3173 28.0333 24.3246 28.1062 24.3318 28.1718C24.3829 28.5218 24.4048 28.8791 24.4048 29.2437Z" fill="#FFC107"/>
<path id="Vector_14" d="M22.91 29.1635C22.91 29.2802 22.91 29.4041 22.8954 29.5208V29.5281C22.8954 29.5354 22.8954 29.5354 22.8954 29.5354C22.8808 30.0604 22.8079 30.5781 22.6912 31.0447C22.6912 31.0739 22.6839 31.0958 22.6693 31.1249H19.2641L16.4568 30.5197L16.085 30.4395L16.0266 30.4541L12.9131 31.0958L12.7745 31.1249H12.5777C12.111 31.1249 11.6516 31.0812 11.2068 30.9937C11.1412 30.9791 11.0756 30.9645 11.01 30.9499H11.0027C10.4923 30.8406 9.99642 30.6729 9.52975 30.4541C9.51517 30.3739 9.50059 30.2937 9.4933 30.2135C9.44225 29.8999 9.42038 29.5718 9.42038 29.2437C9.42038 29.1197 9.42038 28.9958 9.42767 28.8718C9.44955 28.4781 9.50788 28.0916 9.59538 27.7197C9.65371 27.4427 9.73392 27.1729 9.82871 26.9177C9.90892 26.6916 10.0037 26.4729 10.1058 26.2614C10.1933 26.0791 10.2954 25.9041 10.3975 25.7291C10.4995 25.5614 10.6089 25.401 10.7256 25.2406C11.0173 24.8395 11.36 24.4676 11.7391 24.1395C11.9579 23.9499 12.1985 23.7677 12.4464 23.6072C13.511 22.9072 14.787 22.4989 16.1652 22.4989C16.435 22.4989 16.6975 22.5135 16.9527 22.5499H16.9673C17.7475 22.6374 18.4766 22.8562 19.1475 23.1843C19.1548 23.1843 19.1548 23.1843 19.1548 23.1843C20.212 23.702 21.1089 24.4822 21.7652 25.4447C21.8745 25.6052 21.9839 25.7802 22.0787 25.9552C22.1589 26.0937 22.2318 26.2395 22.2975 26.3854C22.3995 26.6114 22.4943 26.852 22.5745 27.0927H22.5818C22.662 27.3624 22.735 27.6322 22.786 27.9166V27.9239C22.8662 28.3249 22.91 28.7406 22.91 29.1635Z" fill="#FFD54F"/>
<path id="Vector_15" d="M21.4079 29.3167V29.3385C21.4079 29.7687 21.3569 30.1917 21.2548 30.6073C21.2183 30.7823 21.1673 30.9573 21.1016 31.125H17.835L16.1652 30.6656L14.4954 31.125H12.5777C12.111 31.125 11.6516 31.0812 11.2069 30.9937C11.1923 30.9719 11.185 30.95 11.1777 30.9281C11.0756 30.6146 10.9954 30.301 10.9589 29.9729C10.9298 29.7614 10.9152 29.5427 10.9152 29.3167C10.9152 29.2292 10.9152 29.1344 10.9298 29.0469C10.9371 28.7042 10.9881 28.3687 11.0756 28.0479C11.1194 27.8291 11.185 27.6177 11.2725 27.4135C11.3016 27.3114 11.3454 27.2166 11.3964 27.1219C11.5058 26.8739 11.6371 26.6333 11.7829 26.4C11.9433 26.1667 12.1183 25.9479 12.3152 25.7437C12.5485 25.4812 12.811 25.2406 13.11 25.0437C13.6204 24.6719 14.2037 24.3948 14.8381 24.2417C15.261 24.125 15.7058 24.0667 16.1652 24.0667C17.6235 24.0667 18.9287 24.65 19.8766 25.5906C19.9131 25.6271 19.9569 25.6708 19.9933 25.7219H20.0006C20.1027 25.8312 20.1975 25.9406 20.2923 26.0646C20.5621 26.4073 20.7881 26.7791 20.9631 27.1875C21.0506 27.3771 21.1235 27.5739 21.1819 27.7781C21.1891 27.8073 21.1964 27.8292 21.2037 27.8583C21.3058 28.2156 21.3714 28.5875 21.386 28.9739C21.4006 29.0833 21.4079 29.2 21.4079 29.3167Z" fill="#FFE082"/>
<path id="Vector_16" d="M19.9131 29.3166C19.9131 29.6156 19.8766 29.9 19.7964 30.1698C19.7235 30.4614 19.6141 30.7385 19.4756 31.001C19.4537 31.0448 19.4027 31.125 19.4027 31.125H12.9277C12.9204 31.1177 12.9131 31.1031 12.9131 31.0958C12.8256 30.9573 12.7527 30.8187 12.6944 30.6656C12.5485 30.3302 12.461 29.9656 12.4319 29.5864C12.4173 29.4989 12.4173 29.4041 12.4173 29.3166C12.4173 29.2729 12.4173 29.2219 12.4246 29.1781C12.4319 28.8573 12.4756 28.551 12.5631 28.2666C12.636 28.0041 12.7308 27.7635 12.8548 27.5302C12.8548 27.5302 12.8621 27.5229 12.8621 27.5156C12.9496 27.3625 13.0444 27.2093 13.1537 27.0635C13.511 26.5823 13.985 26.1885 14.5319 25.9333C14.5391 25.9333 14.5391 25.9333 14.5391 25.9333C14.7141 25.8458 14.8964 25.7729 15.086 25.7218C15.086 25.7218 15.086 25.7218 15.0933 25.7218C15.4287 25.6198 15.7933 25.5687 16.1652 25.5687C16.5954 25.5687 17.011 25.6343 17.3902 25.7729C17.5287 25.8093 17.66 25.8677 17.7912 25.9333C17.7912 25.9333 17.7912 25.9333 17.7985 25.9333C18.4256 26.2323 18.9579 26.6989 19.3225 27.2823C19.3954 27.3916 19.461 27.5083 19.5194 27.6323C19.5485 27.6833 19.5777 27.7416 19.5996 27.7927C19.7673 28.1718 19.8694 28.5875 19.8985 29.025C19.9058 29.0614 19.9058 29.0979 19.9058 29.1416C19.9131 29.2 19.9131 29.2583 19.9131 29.3166Z" fill="#FFECB3"/>
<g id="Group">
<path id="Vector_17" d="M22.786 8.52087H14.036C11.1923 8.52087 8.93185 10.7813 8.93185 13.625V22.375C8.93185 25.2188 11.1923 27.4792 14.036 27.4792H22.786C25.6298 27.4792 27.8902 25.2188 27.8902 22.375V13.625C27.8902 10.7813 25.6298 8.52087 22.786 8.52087Z" stroke="white" stroke-width="2" stroke-miterlimit="10" stroke-linecap="round" stroke-linejoin="round"/>
<path id="Vector_18" d="M23.5152 12.8958C23.9179 12.8958 24.2443 12.5694 24.2443 12.1667C24.2443 11.764 23.9179 11.4375 23.5152 11.4375C23.1125 11.4375 22.786 11.764 22.786 12.1667C22.786 12.5694 23.1125 12.8958 23.5152 12.8958Z" fill="white"/>
</g>
<g id="Group_2">
<path id="Vector_19" d="M18.411 22.375C20.8273 22.375 22.786 20.4162 22.786 18C22.786 15.5838 20.8273 13.625 18.411 13.625C15.9948 13.625 14.036 15.5838 14.036 18C14.036 20.4162 15.9948 22.375 18.411 22.375Z" stroke="white" stroke-width="2" stroke-miterlimit="10" stroke-linecap="round" stroke-linejoin="round"/>
</g>
</g>
</svg>
