<svg width="79" height="79" viewBox="0 0 79 79" fill="none" xmlns="http://www.w3.org/2000/svg">
<g id="Isolation_Mode">
<g id="Group" filter="url(#filter0_d_670_1863)">
<path id="Vector" d="M39.3347 74.8819C58.9263 74.8819 74.8084 58.9998 74.8084 39.4082C74.8084 19.8167 58.9263 3.93457 39.3347 3.93457C19.7432 3.93457 3.86108 19.8167 3.86108 39.4082C3.86108 58.9998 19.7432 74.8819 39.3347 74.8819Z" stroke="#2A2928" stroke-width="1.82906" stroke-miterlimit="10"/>
<path id="Vector_2" d="M39.0033 45.0987C39.0237 45.684 38.9525 46.2856 38.7208 46.8445C38.4831 47.3993 38.0624 47.8809 37.5401 48.2061C37.0137 48.5252 36.4142 48.6959 35.8167 48.7853C35.2172 48.8686 34.6095 48.8625 34.0242 48.8483C32.8435 48.8239 31.6647 48.7081 30.4982 48.5943C29.9149 48.5394 29.3357 48.4723 28.7626 48.4479C28.1915 48.4256 27.6266 48.4378 27.1022 48.5719C26.5779 48.704 26.0983 48.956 25.6817 49.3157C25.2671 49.6754 24.9053 50.1144 24.5781 50.5839C23.9197 51.5208 23.3811 52.5593 22.8507 53.5978L22.4645 54.3843L22.0865 55.1769C21.8386 55.7073 21.5846 56.2357 21.3529 56.7702C21.1192 57.3047 20.8997 57.8453 20.7351 58.4021C20.6538 58.6805 20.5847 58.963 20.5603 59.2516C20.5339 59.5361 20.5522 59.8369 20.6883 60.0991C20.5237 59.8532 20.4709 59.5442 20.4668 59.2475C20.4668 58.9488 20.5115 58.6521 20.5684 58.3615C20.6863 57.7782 20.8753 57.2173 21.0724 56.6604C21.487 55.5549 21.9321 54.4696 22.4178 53.3945C22.9015 52.3194 23.438 51.2606 24.0985 50.2567C24.4318 49.7567 24.82 49.2812 25.2874 48.8666C25.7548 48.454 26.334 48.137 26.9498 47.9825C27.5676 47.8321 28.1875 47.8281 28.787 47.8545C29.3865 47.887 29.9739 47.9521 30.5571 48.0211C31.7216 48.1695 32.878 48.2955 34.0425 48.3748C34.6278 48.4154 35.1969 48.4378 35.7659 48.391C36.3309 48.3402 36.8897 48.2081 37.3877 47.948C37.8835 47.6858 38.2941 47.2753 38.5644 46.7713C38.8245 46.2612 38.9546 45.682 38.9972 45.0967L39.0033 45.0987Z" fill="#2A2928"/>
<path id="Vector_3" d="M46.9313 25.3771C47.0025 25.0235 47.0065 24.6414 46.844 24.3203C46.6854 23.9972 46.3481 23.8062 46.0046 23.735C45.6591 23.6558 45.2953 23.6741 44.9438 23.7289C44.5922 23.7859 44.2467 23.8956 43.9276 24.046C43.7691 24.1232 43.6126 24.2106 43.4785 24.3183C43.3443 24.424 43.2183 24.548 43.1553 24.6902C43.0903 24.8325 43.1127 24.9768 43.2102 25.0967C43.2651 25.1739 43.2834 25.178 43.3362 25.1739C43.3911 25.1658 43.4663 25.1251 43.5354 25.0784C43.8158 24.8813 44.0841 24.6191 44.393 24.4098C44.6999 24.1984 45.0576 24.0175 45.4579 23.981C45.6571 23.9627 45.8603 23.981 46.0514 24.0358C46.1469 24.0582 46.2444 24.107 46.3359 24.1496C46.4233 24.2025 46.5107 24.2533 46.5859 24.3203C46.8968 24.5723 47.1061 24.8935 47.2992 25.2105C47.4902 25.5255 47.6467 25.873 47.8276 26.1453C47.8804 26.2165 47.8886 26.2246 47.98 26.2937C48.0532 26.3506 48.1304 26.4034 48.2015 26.4644C48.3478 26.5803 48.4881 26.7022 48.6242 26.8302C49.173 27.3383 49.6262 27.95 49.9717 28.6146C50.3131 29.2832 50.5407 30.0026 50.6748 30.7343L51.0732 32.8743C51.2032 33.5896 51.3374 34.3111 51.3617 35.0712C51.3699 35.4512 51.3414 35.8475 51.2154 36.2357C51.0975 36.6259 50.8496 36.9815 50.557 37.2539C50.2623 37.5282 49.9249 37.7274 49.5835 37.8961C49.2421 38.0647 48.8925 38.1989 48.5409 38.3147C47.8377 38.5525 47.1244 38.7293 46.4131 38.8919C45.714 39.0484 45.0271 39.2435 44.3483 39.4752C43.6675 39.7028 43.005 39.9771 42.2997 40.2169C41.9461 40.3348 41.5783 40.4425 41.184 40.4893C40.7918 40.538 40.3772 40.5137 39.9911 40.408C39.6049 40.3043 39.2452 40.1356 38.9221 39.9365C38.5949 39.7393 38.29 39.5178 38.0015 39.2821C37.4222 38.8147 36.8918 38.3045 36.3756 37.7863C35.8574 37.2681 35.3635 36.7336 34.8697 36.1971L34.5018 35.7926C34.3738 35.6524 34.2722 35.5366 34.1462 35.4289C33.9003 35.2134 33.6158 35.0407 33.313 34.935C33.1646 34.8822 33.0162 34.8557 32.8923 34.8618C32.7683 34.872 32.685 34.9106 32.6138 34.9939C32.5935 35.0122 32.5813 35.0427 32.563 35.063L32.5204 35.1504L32.4858 35.25C32.4817 35.2825 32.4756 35.313 32.4696 35.3435C32.4594 35.374 32.4614 35.4085 32.4635 35.4431C32.4635 35.4776 32.4635 35.5122 32.4635 35.5488C32.4797 35.624 32.4817 35.6951 32.5061 35.7723C32.5874 36.0772 32.7459 36.3861 32.9289 36.6787C33.1118 36.9734 33.3231 37.2559 33.5467 37.5323C33.7702 37.8066 34.008 38.0729 34.2559 38.331C34.321 38.398 34.3738 38.4549 34.4307 38.5037C34.4897 38.5525 34.5506 38.5992 34.6157 38.6378C34.7478 38.7171 34.892 38.776 35.0404 38.8106C35.3432 38.8797 35.6867 38.8492 36.0769 38.8533C36.1277 38.8533 36.1785 38.8573 36.2395 38.8655C36.2964 38.8736 36.3655 38.8838 36.4549 38.9305C36.4772 38.9447 36.5057 38.963 36.5219 38.9752L36.5524 39.0057L36.6134 39.0667C36.652 39.1073 36.6825 39.15 36.717 39.1906C36.841 39.3593 36.9304 39.5321 37.0117 39.7068C37.1702 40.0564 37.2841 40.4141 37.3735 40.7778C37.4629 41.1396 37.53 41.5074 37.5686 41.8794C37.6072 42.2513 37.6214 42.6272 37.5747 43.0134C37.5483 43.2064 37.5117 43.4015 37.4283 43.5946C37.3836 43.6922 37.3308 43.7897 37.2495 43.8771C37.2068 43.9198 37.1662 43.9645 37.1093 43.997C37.0829 44.0133 37.0564 44.0315 37.028 44.0458L36.9365 44.0783C36.8146 44.1169 36.6886 44.1128 36.5788 44.0946C36.4691 44.0702 36.3675 44.0397 36.272 43.9868C36.0789 43.8893 35.9163 43.7389 35.8005 43.5702C35.5708 43.2268 35.4773 42.8427 35.4286 42.4687C35.3798 42.0927 35.3879 41.7168 35.4184 41.3469C35.4509 40.977 35.5099 40.6092 35.5993 40.2495C35.6907 39.8897 35.8045 39.5361 35.9793 39.1967C36.0708 39.0301 36.1643 38.8594 36.3512 38.7232C36.3736 38.7049 36.4 38.6907 36.4305 38.6805C36.461 38.6683 36.4874 38.6541 36.526 38.6541C36.5626 38.6541 36.5931 38.6419 36.6358 38.6561C36.6561 38.6622 36.6764 38.6683 36.6947 38.6765L36.7333 38.7008C36.8309 38.7679 36.8959 38.837 36.9569 38.9122C37.1987 39.2049 37.3836 39.5219 37.5604 39.843C37.7352 40.1641 37.8937 40.4954 38.0401 40.8287C38.6111 42.1639 39.0298 43.6007 39.0034 45.0579C38.9912 44.3303 38.855 43.6149 38.6559 42.9199C38.4587 42.2248 38.2006 41.5481 37.8917 40.8957C37.7373 40.5706 37.5706 40.2495 37.3897 39.9385C37.2068 39.6316 37.0117 39.3227 36.7841 39.0626C36.7292 38.9976 36.6642 38.9386 36.6093 38.9041L36.591 38.8919C36.591 38.8919 36.587 38.8919 36.5849 38.8919C36.5849 38.8858 36.5687 38.8959 36.5606 38.8919C36.5524 38.8878 36.5382 38.9 36.526 38.9041C36.5138 38.9081 36.5016 38.9142 36.4874 38.9264C36.3797 39.0077 36.2862 39.1622 36.213 39.3146C36.0647 39.6276 35.9631 39.971 35.8879 40.3165C35.7375 41.0075 35.6724 41.731 35.7659 42.4199C35.8147 42.7614 35.9123 43.0987 36.0952 43.3568C36.1866 43.4849 36.3025 43.5844 36.4346 43.6474C36.5667 43.7125 36.7211 43.743 36.8187 43.7064C36.9182 43.6759 37.0036 43.5763 37.0605 43.4341C37.1174 43.2938 37.1479 43.1292 37.1662 42.9626C37.2007 42.6252 37.1804 42.2716 37.1377 41.9241C37.0951 41.5745 37.026 41.227 36.9345 40.8876C36.843 40.5482 36.7292 40.2129 36.5829 39.904C36.5077 39.7515 36.4264 39.6032 36.3309 39.4812C36.3065 39.4548 36.2842 39.4223 36.2577 39.3979L36.2212 39.3634L36.2029 39.3451C36.2029 39.3451 36.209 39.3532 36.213 39.3532C36.2232 39.3593 36.2008 39.3491 36.1683 39.3471C36.1378 39.3431 36.0992 39.341 36.0586 39.341C35.7253 39.341 35.3371 39.3898 34.9246 39.3065C34.7193 39.2638 34.5222 39.1866 34.3433 39.0789C34.2539 39.026 34.1665 38.965 34.0873 38.898C34.0039 38.8289 33.9328 38.7537 33.8718 38.6927C33.6137 38.4285 33.3658 38.1562 33.128 37.8696C32.8902 37.5851 32.6647 37.2864 32.4614 36.9673C32.2602 36.6462 32.0733 36.3068 31.9615 35.9125C31.929 35.817 31.9208 35.7052 31.9005 35.6036C31.8964 35.5488 31.8964 35.4919 31.8944 35.437C31.8944 35.3821 31.8924 35.3252 31.9046 35.2663L31.9371 35.0935C31.9533 35.0387 31.9716 34.9878 31.9899 34.935C32.0123 34.8822 32.0387 34.8293 32.0651 34.7785C32.0997 34.7277 32.1281 34.6749 32.1708 34.6281C32.2501 34.5286 32.3598 34.4473 32.4756 34.3863C32.5956 34.3314 32.7216 34.3009 32.8415 34.2908C33.0813 34.2765 33.2947 34.3233 33.4877 34.3883C33.8739 34.5184 34.2214 34.7277 34.5201 34.9878C34.6705 35.1139 34.8108 35.2703 34.9266 35.3984L35.2924 35.7987C35.7842 36.3292 36.276 36.8576 36.7861 37.3656C37.2962 37.8737 37.8165 38.3676 38.3673 38.8106C38.6416 39.0341 38.9282 39.2374 39.2208 39.4142C39.5135 39.5951 39.8224 39.7332 40.1354 39.8186C40.4504 39.904 40.7715 39.9263 41.1007 39.8857C41.4279 39.8471 41.7612 39.7536 42.0965 39.6438C42.7672 39.4182 43.446 39.1398 44.143 38.9081C44.8381 38.6724 45.5514 38.4732 46.2688 38.3147C46.972 38.1582 47.6691 37.9834 48.3438 37.766C48.6811 37.6562 49.0124 37.5343 49.3234 37.3839C49.6343 37.2356 49.929 37.0608 50.1668 36.8433C50.4045 36.6259 50.5895 36.3678 50.687 36.0609C50.7886 35.7581 50.8191 35.4207 50.8151 35.0773C50.8029 34.3843 50.6769 33.6709 50.559 32.9596L50.2013 30.8115C50.0875 30.1144 49.8863 29.4336 49.5774 28.8016C49.2664 28.1736 48.8539 27.5923 48.3458 27.1046C48.2198 26.9826 48.0877 26.8627 47.9516 26.751C47.8845 26.692 47.8134 26.6392 47.7443 26.5843C47.6894 26.5477 47.5614 26.4319 47.5146 26.3506C47.3033 26.0112 47.1691 25.6901 46.9882 25.3812C46.8114 25.0764 46.6204 24.7776 46.3664 24.5663C46.2424 24.4545 46.1042 24.3833 45.9518 24.3346C45.7953 24.2878 45.6307 24.2675 45.4681 24.2777C45.1389 24.296 44.8198 24.4403 44.5271 24.6293C44.2284 24.8162 43.9683 25.0581 43.6472 25.2715C43.5638 25.3202 43.4764 25.3751 43.3504 25.3934C43.2874 25.4015 43.2102 25.3893 43.1492 25.3507C43.1228 25.3324 43.0923 25.308 43.0761 25.2857L43.0293 25.2227L42.9826 25.1597L42.9501 25.0845C42.9399 25.0581 42.9277 25.0337 42.9196 25.0073L42.9074 24.9239C42.8911 24.8122 42.9237 24.7024 42.9663 24.6089C43.0598 24.4199 43.2082 24.2899 43.3606 24.1781C43.513 24.0643 43.6797 23.9789 43.8504 23.9037C44.1918 23.7554 44.5495 23.6558 44.9153 23.607C45.2791 23.5623 45.6571 23.5542 46.0168 23.6497C46.3725 23.7371 46.724 23.9566 46.8744 24.3021C47.0289 24.6435 47.0065 25.0296 46.9212 25.3771H46.9313Z" fill="#2A2928"/>
<path id="Vector_4" d="M30.5653 13.2404C29.3297 14.2952 28.1225 15.3845 26.9763 16.5327C25.826 17.6729 24.7164 18.8618 23.7693 20.1624C23.2999 20.8128 22.869 21.4936 22.5622 22.2171C22.4118 22.5768 22.2939 22.9507 22.2593 23.3247C22.2228 23.6945 22.2695 24.0644 22.4463 24.3672C22.613 24.6761 22.9016 24.9119 23.2308 25.0867C23.562 25.2635 23.934 25.3793 24.314 25.4667C25.0822 25.6252 25.8829 25.6781 26.6836 25.672C27.4701 25.6659 28.2668 25.548 29.0614 25.4078C29.8561 25.2675 30.6527 25.1029 31.4534 24.9546C32.2562 24.8082 33.063 24.6782 33.878 24.5786C34.6929 24.4851 35.514 24.4343 36.337 24.4465C36.5423 24.4506 36.7476 24.4668 36.9549 24.4749L37.2638 24.4912L37.5706 24.5278C37.7759 24.5542 37.9812 24.5705 38.1844 24.603L38.792 24.7188C39.5928 24.8875 40.3793 25.0887 41.1698 25.2797C41.9584 25.4789 42.7449 25.6781 43.5374 25.8447C43.9337 25.928 44.3321 26.0012 44.7345 26.054C45.1348 26.1089 45.5413 26.1435 45.9477 26.1048C45.1369 26.2248 44.3158 26.0967 43.5151 25.9748C42.7103 25.8427 41.9136 25.6801 41.115 25.5195C40.3203 25.3549 39.5257 25.172 38.7311 25.0298L38.1376 24.9342C37.9385 24.9078 37.7393 24.8977 37.5402 24.8773L37.2414 24.8509L36.9406 24.8428C36.7394 24.8387 36.5403 24.8306 36.3391 24.8326C35.5363 24.8469 34.7356 24.916 33.9349 25.0155C33.1362 25.1253 32.3415 25.2635 31.5469 25.422C30.7523 25.5805 29.9556 25.7431 29.1509 25.8894C28.3461 26.0337 27.5311 26.1638 26.6897 26.1739C25.8646 26.1739 25.0355 26.1191 24.2103 25.9443C23.7998 25.8467 23.3893 25.7187 23.0032 25.5114C22.6211 25.3062 22.2492 25.0094 22.0317 24.5928C21.8021 24.1843 21.7553 23.7067 21.8061 23.2739C21.8529 22.8349 21.9931 22.4284 22.1598 22.0423C22.4971 21.27 22.9646 20.5811 23.4645 19.9307C24.4705 18.6301 25.6208 17.4656 26.8117 16.3539C28.0189 15.2605 29.2626 14.2058 30.5714 13.2384L30.5653 13.2404Z" fill="#2A2928"/>
<g id="Group_2">
<path id="Vector_5" d="M35.4245 47.6695C35.5322 47.7467 35.5931 47.8849 35.6094 48.0231C35.6257 48.1613 35.6094 48.3157 35.5627 48.4682C35.4712 48.8055 35.2863 49.2201 35.0099 49.6957C34.4876 50.6468 33.6889 51.8763 32.8617 53.2725C31.2522 55.9856 29.5267 59.3064 29.5267 62.3081C29.5267 62.3975 29.5267 62.4869 29.5308 62.5743V62.5906C29.5308 62.6678 29.4536 62.7288 29.3784 62.7288C29.3032 62.7288 29.2402 62.6678 29.2402 62.5906C29.2361 62.4991 29.2361 62.4097 29.2361 62.3182C29.2361 59.2027 30.992 55.8494 32.6179 53.1201C33.447 51.7239 34.2457 50.4801 34.766 49.5432C35.0261 49.0819 35.1968 48.6836 35.2883 48.393C35.3188 48.2548 35.335 48.1328 35.3188 48.0556C35.3188 47.9784 35.2883 47.9337 35.2415 47.9032C35.1806 47.8422 35.1034 47.826 34.9652 47.8422C34.8432 47.8727 34.6725 47.9337 34.4733 48.0414C34.0892 48.271 33.5974 48.6551 33.0609 49.1612C31.9858 50.1895 30.7116 51.6487 29.5755 53.1221C27.6408 55.6401 26.1227 58.2028 26.1227 58.2028C26.0922 58.2496 26.0454 58.2801 26.0007 58.2801C25.9093 58.2801 25.8483 58.2191 25.8483 58.1276V58.0972C25.8483 58.0972 26.4153 55.8413 26.9843 53.7846C27.2445 52.8782 27.5066 52.0186 27.6448 51.4048C27.7058 51.0979 27.7363 50.8683 27.7363 50.7301C27.72 50.6996 27.72 50.6691 27.72 50.6691H27.7038C27.6428 50.6854 27.4274 50.8541 27.1672 51.1305C26.9213 51.4069 26.6145 51.7747 26.2771 52.236C25.6024 53.1424 24.82 54.3232 24.0822 55.5202C23.3465 56.7172 22.6698 57.9143 22.117 58.8044C21.8264 59.2495 21.5805 59.6173 21.3651 59.8795C21.2573 60.0177 21.1496 60.1091 21.0582 60.1864C20.9505 60.2636 20.8428 60.3083 20.7208 60.2941C20.6131 60.2636 20.5217 60.1864 20.4749 60.0949C20.4282 60.0034 20.3977 59.8957 20.3835 59.7718C20.3814 59.7291 20.3794 59.6864 20.3794 59.6397C20.3794 59.4039 20.4139 59.1255 20.4912 58.8044C20.6436 58.022 20.983 56.9936 21.4281 55.8718C22.3019 53.6302 23.6087 51.0675 24.8057 49.5778C24.8362 49.5473 24.883 49.5168 24.9277 49.5168C25.0049 49.5168 25.0659 49.5778 25.0659 49.655C25.0659 49.6855 25.0496 49.7322 25.0354 49.7465C23.8851 51.1894 22.5641 53.7684 21.6902 55.9795C21.2594 57.0851 20.922 58.1134 20.7696 58.8654C20.7066 59.1722 20.6741 59.4364 20.6741 59.6315C20.6741 59.6702 20.6741 59.7067 20.6781 59.7393C20.6944 59.847 20.7086 59.9242 20.7391 59.9547C20.7554 60.0014 20.7696 60.0014 20.7859 60.0014C20.7859 60.0014 20.8163 60.0014 20.8936 59.9547C20.9545 59.9079 21.046 59.8165 21.1395 59.6945C21.3386 59.4649 21.5845 59.095 21.8609 58.6499C22.4279 57.7598 23.1047 56.5628 23.8404 55.3658C24.5761 54.1687 25.3748 52.9717 26.0515 52.0653C26.3889 51.604 26.6958 51.2057 26.9579 50.9293C27.2343 50.6386 27.4193 50.4374 27.6326 50.3765C27.7241 50.3602 27.8481 50.3765 27.9233 50.4537C28.0005 50.5309 28.0147 50.6061 28.0147 50.7138C28.0167 50.7464 28.0188 50.7809 28.0188 50.8175C28.0188 50.9963 27.9863 51.2097 27.9233 51.4658C27.7851 52.0958 27.5249 52.9555 27.279 53.8598C26.8949 55.2255 26.588 56.4225 26.3726 57.2517C26.9722 56.3006 28.0757 54.626 29.3499 52.9534C30.5022 51.4638 31.7602 49.9903 32.8658 48.962C33.4023 48.4397 33.9104 48.0251 34.3392 47.7955C34.5546 47.6735 34.7375 47.58 34.9225 47.5658C34.9692 47.5496 35.0139 47.5496 35.0607 47.5496C35.1989 47.5496 35.3371 47.58 35.4285 47.6715L35.4245 47.6695Z" fill="#2A2928" stroke="#2A2928" stroke-width="0.325167" stroke-miterlimit="10"/>
<path id="Vector_6" d="M35.7395 54.6301H35.7415H35.7436C35.8838 54.6627 35.9997 54.7602 36.0484 54.8842C36.0972 55.0082 36.0931 55.1463 36.0627 55.2906C36.0017 55.5792 35.8269 55.9125 35.5769 56.2377C35.1014 56.8596 34.3494 57.4632 33.5324 57.4957C33.5324 57.6034 33.5446 57.7009 33.5731 57.7802C33.6137 57.892 33.6808 57.9753 33.7946 58.0383C33.9389 58.1135 34.1909 58.1277 34.5039 58.0668C34.8169 58.0058 35.1888 57.8737 35.5749 57.6908C36.3451 57.329 37.1682 56.7722 37.7271 56.2174C37.7515 56.193 37.7982 56.1727 37.8307 56.1727C37.912 56.1727 37.9771 56.2377 37.9771 56.319C37.9771 56.3535 37.9567 56.4003 37.9324 56.4247C37.341 57.01 36.4996 57.577 35.6989 57.9529C35.2985 58.1419 34.9083 58.2822 34.5608 58.3513C34.2133 58.4204 33.9023 58.4204 33.6584 58.2944C33.4857 58.1989 33.3658 58.0525 33.3028 57.8818C33.2398 57.7111 33.2296 57.5221 33.2561 57.3229C33.3069 56.9266 33.4959 56.4897 33.756 56.0792C34.0161 55.6686 34.3454 55.2866 34.6888 55.0143C34.9896 54.7765 35.3046 54.6119 35.6115 54.6159C35.6542 54.6159 35.6989 54.62 35.7415 54.6281L35.7395 54.6301ZM34.8697 55.2439C34.5588 55.4898 34.2458 55.8516 34.0019 56.2357C33.7966 56.5608 33.6422 56.9043 33.5751 57.203C34.2397 57.1482 34.9225 56.6218 35.3493 56.0629C35.579 55.7621 35.7355 55.4512 35.7802 55.2317C35.8025 55.122 35.7964 55.0386 35.7802 54.9939C35.7619 54.9492 35.7456 54.9309 35.6846 54.9167C35.6603 54.9126 35.6338 54.9106 35.6054 54.9106C35.4062 54.9106 35.14 55.0285 34.8677 55.2439H34.8697Z" fill="#2A2928" stroke="#2A2928" stroke-width="0.325167" stroke-miterlimit="10"/>
<path id="Vector_7" d="M39.2188 53.9251C39.3001 53.9251 39.3651 53.9901 39.3651 54.0714C39.3651 54.0978 39.3529 54.1344 39.3387 54.1568C39.3387 54.1568 38.8001 54.9392 38.2738 55.8761C38.0096 56.3455 37.7494 56.8516 37.5625 57.3149C37.4954 57.4796 37.4446 57.634 37.3999 57.7824C37.599 57.504 37.851 57.1869 38.1376 56.8455C38.6863 56.1952 39.3488 55.4879 39.9524 54.9412C40.2552 54.6689 40.5418 54.4372 40.7979 54.2706C41.0539 54.1039 41.2714 53.9962 41.4848 54.0064C41.5905 54.0125 41.7022 54.0633 41.7673 54.1547C41.8323 54.2462 41.8587 54.36 41.8608 54.4921C41.8668 54.7583 41.7815 55.1221 41.5986 55.6383C41.5803 55.6932 41.5173 55.7379 41.4604 55.7379C41.3791 55.7379 41.3141 55.6729 41.3141 55.5916C41.3141 55.5773 41.3181 55.553 41.3242 55.5408C41.5031 55.0408 41.5742 54.6933 41.5701 54.4982C41.5701 54.4006 41.5478 54.3478 41.5315 54.3254C41.5153 54.3051 41.5092 54.299 41.4685 54.297C41.3872 54.2929 41.1901 54.362 40.9564 54.5144C40.7227 54.6669 40.4442 54.8904 40.1496 55.1567C39.5602 55.6891 38.9038 56.3903 38.3632 57.0325C37.8226 57.6747 37.3917 58.2722 37.2739 58.5384C37.2515 58.5851 37.1926 58.6237 37.1397 58.6237C37.0645 58.6237 36.9995 58.5628 36.9934 58.4876C36.969 58.1258 37.0991 57.6828 37.2942 57.2011C37.4893 56.7195 37.7535 56.2033 38.0218 55.7277C38.5562 54.7766 39.1009 53.9861 39.1009 53.9861C39.1253 53.9515 39.1781 53.921 39.2208 53.921L39.2188 53.9251Z" fill="#2A2928" stroke="#2A2928" stroke-width="0.325167" stroke-miterlimit="10"/>
<path id="Vector_8" d="M45.0963 54.6666C45.5108 54.7215 45.7547 55.0914 45.8035 55.4511C45.8035 55.4572 45.8035 55.4674 45.8035 55.4735C45.8035 55.5547 45.7385 55.6198 45.6572 55.6198C45.586 55.6198 45.521 55.5629 45.5129 55.4917C45.4783 55.2296 45.3137 54.9898 45.0556 54.9573C44.6857 54.9085 44.2772 55.0528 43.8769 55.3231C43.4765 55.5934 43.0863 55.9836 42.7591 56.3921C42.4319 56.8005 42.1677 57.2314 42.0072 57.5728C41.9279 57.7435 41.8751 57.8939 41.8527 57.9996C41.8527 57.9996 41.8527 57.9996 41.8527 58.0016C41.8873 57.9752 41.9096 57.9589 41.9543 57.9224C42.1291 57.774 42.3811 57.5545 42.6981 57.3106C43.3322 56.8249 44.2366 56.2437 45.3625 55.9429C45.3726 55.9409 45.3889 55.9388 45.3991 55.9388C45.4804 55.9388 45.5454 56.0039 45.5454 56.0852C45.5454 56.1157 45.5291 56.1604 45.5068 56.1827C45.5068 56.1827 45.1755 56.5465 44.9235 56.9408C44.7975 57.1379 44.6959 57.3432 44.6634 57.4935C44.6471 57.5687 44.6491 57.6257 44.6613 57.6622C44.6735 57.6988 44.6878 57.7171 44.7345 57.7415C44.7609 57.7557 44.826 57.7638 44.9215 57.7435C45.017 57.7232 45.1389 57.6805 45.271 57.6196C45.5373 57.4956 45.8523 57.3005 46.151 57.0952C46.7465 56.6847 47.2749 56.2356 47.2749 56.2356C47.2972 56.2152 47.3399 56.199 47.3704 56.199C47.4517 56.199 47.5167 56.264 47.5167 56.3453C47.5167 56.3839 47.4923 56.4327 47.4639 56.4571C47.4639 56.4571 46.9273 56.9123 46.3156 57.333C46.0108 57.5444 45.6856 57.7476 45.393 57.8817C45.2466 57.9488 45.1084 58.0016 44.9784 58.028C44.8483 58.0545 44.7203 58.0585 44.6065 58.0016C44.4988 57.9488 44.4175 57.8553 44.3849 57.7517C44.3504 57.648 44.3565 57.5403 44.3809 57.4326C44.4276 57.2192 44.5455 56.9956 44.6796 56.7843C44.7752 56.6339 44.8788 56.4957 44.9743 56.3717C44.1147 56.6786 43.4034 57.1399 42.877 57.5423C42.5681 57.7781 42.3222 57.9935 42.1433 58.1439C42.0539 58.2191 41.9828 58.278 41.9177 58.3207C41.8852 58.341 41.8568 58.3593 41.8161 58.3735C41.7958 58.3796 41.7714 58.3857 41.7369 58.3837C41.7023 58.3796 41.6576 58.3613 41.6271 58.3309C41.5235 58.2191 41.5377 58.0829 41.5682 57.9407C41.5966 57.7984 41.6576 57.6338 41.743 57.4488C41.9157 57.081 42.1901 56.6359 42.5315 56.2091C42.8729 55.7824 43.2774 55.3718 43.7143 55.0792C44.0964 54.8231 44.5069 54.6524 44.9174 54.6544C44.9763 54.6544 45.0353 54.6585 45.0942 54.6666H45.0963Z" fill="#2A2928" stroke="#2A2928" stroke-width="0.325167" stroke-miterlimit="10"/>
<path id="Vector_9" d="M52.3493 48.1125C52.3493 48.1389 52.3372 48.1775 52.3209 48.1979C52.3209 48.1979 50.4715 50.8134 48.8619 53.746C48.0571 55.2133 47.3133 56.7599 46.8906 58.089C46.5248 59.2434 46.4171 60.225 46.6711 60.8367C48.1567 57.0952 49.8212 54.687 51.13 53.2034C52.4713 51.6832 53.4508 51.1325 53.4508 51.1325C53.4691 51.1223 53.5016 51.1122 53.524 51.1122C53.524 51.1122 53.5281 51.1122 53.5301 51.1122C53.6073 51.1162 53.6683 51.1813 53.6683 51.2585C53.6683 51.3073 53.6338 51.3642 53.5911 51.3865C53.5911 51.3865 52.6643 51.9027 51.3454 53.3965C50.9511 53.8436 50.5223 54.376 50.0772 55.0081C50.0772 55.0081 50.0772 55.0121 50.0772 55.0142C50.0772 55.0142 49.9126 55.5791 49.8638 56.2031C49.8395 56.516 49.8476 56.8412 49.9126 57.1115C49.9777 57.3798 50.0976 57.585 50.2927 57.6948C50.4695 57.7964 50.7926 57.7984 51.2682 57.583C51.7437 57.3676 52.3595 56.9388 53.0952 56.2396C53.1196 56.2173 53.1643 56.199 53.1968 56.199C53.2781 56.199 53.3431 56.264 53.3431 56.3453C53.3431 56.3799 53.3228 56.4286 53.2964 56.453C52.5444 57.1684 51.9104 57.6155 51.3881 57.8513C50.8678 58.087 50.4471 58.1215 50.1484 57.9508C49.8638 57.7883 49.7074 57.4997 49.6281 57.1826C49.5488 56.8656 49.5468 56.514 49.5712 56.1827C49.5854 55.9978 49.6098 55.819 49.6362 55.6584C48.7136 57.0648 47.7381 58.8857 46.8317 61.2208C46.8256 61.2371 46.8134 61.2635 46.8012 61.2757L46.7971 61.2797C46.7971 61.2797 46.7951 61.2838 46.7931 61.2838C46.7707 61.3061 46.724 61.3244 46.6914 61.3244C46.6427 61.3244 46.5858 61.2899 46.5614 61.2472C46.0452 60.5258 46.1813 59.3531 46.6101 58.0016C47.043 56.64 47.795 55.0812 48.6038 53.6058C50.2236 50.6529 52.0811 48.0292 52.0811 48.0292C52.1055 47.9946 52.1583 47.9662 52.201 47.9662C52.2823 47.9662 52.3473 48.0312 52.3473 48.1125H52.3493Z" fill="#2A2928" stroke="#2A2928" stroke-width="0.325167" stroke-miterlimit="10"/>
<path id="Vector_10" d="M54.154 54.8251C54.154 54.8474 54.1438 54.882 54.1337 54.9003C54.1337 54.9003 53.1765 56.5505 52.9123 57.5179C52.8472 57.7597 52.833 57.9589 52.8574 58.0402C52.8696 58.0808 52.8798 58.0889 52.898 58.0971C52.9163 58.1052 52.961 58.1133 53.0423 58.095C53.207 58.0564 53.4996 57.9081 53.9101 57.6114C54.3206 57.3146 54.8551 56.8675 55.536 56.2375C55.5603 56.2152 55.6051 56.1969 55.6376 56.1969C55.7189 56.1969 55.7839 56.2619 55.7839 56.3432C55.7839 56.3798 55.7615 56.4286 55.7351 56.4529C55.0482 57.087 54.5076 57.5382 54.0829 57.8471C53.6581 58.156 53.3533 58.3227 53.1094 58.3796C52.9875 58.408 52.8737 58.408 52.7761 58.3613C52.6765 58.3145 52.6095 58.2231 52.581 58.1255C52.5221 57.9304 52.5607 57.7048 52.6338 57.4406C52.9224 56.3859 53.8837 54.7539 53.8837 54.7539C53.9061 54.7133 53.963 54.6808 54.0097 54.6808H54.0117C54.091 54.6808 54.156 54.7478 54.156 54.8271L54.154 54.8251ZM53.9386 54.0874C53.8227 54.1707 53.6358 53.8719 53.7333 53.8028C54.9141 53.0834 56.0014 52.5733 57.363 52.2461C57.363 52.2461 55.5847 52.7318 53.9386 54.0874Z" fill="#2A2928" stroke="#2A2928" stroke-width="0.325167" stroke-miterlimit="10"/>
</g>
<path id="Vector_11" d="M49.3581 32.4253C49.2382 32.1571 49.0838 31.905 48.911 31.6754C48.7342 31.4478 48.529 31.2425 48.2892 31.1064C48.0493 30.9702 47.777 30.9194 47.5169 30.9661C47.2567 31.0129 47.0108 31.1429 46.7893 31.3076L46.7507 31.336H46.6755C46.5333 31.336 46.3442 31.3726 46.1898 31.4397C46.1085 31.4681 46.0333 31.5169 45.954 31.5555C45.8829 31.6083 45.8037 31.649 45.7386 31.7079C45.4663 31.9335 45.2366 32.2201 45.0598 32.5432C44.9643 32.6976 44.8952 32.8745 44.8139 33.0391C44.7509 33.2159 44.6778 33.3866 44.6249 33.5654C44.5762 33.7463 44.5172 33.9251 44.4745 34.1081L44.3526 34.6629L43.9279 34.4535C44.566 33.7585 45.261 33.1427 46.0699 32.6468C46.4723 32.4009 46.9072 32.1875 47.3868 32.0717C47.6246 32.0148 47.8746 31.9802 48.1306 31.9945C48.2587 32.0026 48.3847 32.0189 48.5107 32.0493C48.6346 32.0778 48.7525 32.1164 48.8724 32.1713C48.9923 32.2262 49.1122 32.2952 49.2179 32.403C49.3236 32.5066 49.415 32.6712 49.413 32.844C49.4171 33.0187 49.3439 33.163 49.2647 33.2748C49.1834 33.3886 49.0858 33.478 48.9842 33.5553C48.5757 33.856 48.1103 33.9902 47.651 34.0796C47.4132 34.1223 47.2059 34.1446 46.9865 34.2036C46.769 34.2584 46.5495 34.3235 46.328 34.3865C45.887 34.5084 45.4317 34.6141 44.9724 34.6182C45.4257 34.5531 45.8545 34.4007 46.2792 34.2361C46.4926 34.1548 46.704 34.0715 46.9235 33.9942C47.1389 33.913 47.3827 33.8621 47.5921 33.8134C48.0189 33.7036 48.4416 33.5329 48.7586 33.2728C48.9131 33.1468 49.033 32.972 49.0167 32.8562C49.0167 32.7484 48.8805 32.6346 48.6997 32.5615C48.3237 32.407 47.9091 32.4091 47.5006 32.5249C47.0942 32.6387 46.6999 32.8318 46.326 33.0655C45.952 33.2972 45.5984 33.5695 45.259 33.8601C44.9196 34.1467 44.5883 34.4596 44.2916 34.7807L43.6616 35.4616L43.8669 34.5694L44.001 33.9881C44.0478 33.7951 44.1169 33.6061 44.1738 33.415C44.2368 33.226 44.3221 33.0411 44.3932 32.8541C44.4867 32.6753 44.568 32.4883 44.6798 32.3176C44.883 31.964 45.1635 31.6469 45.5008 31.3949C45.5821 31.3279 45.6797 31.2811 45.7671 31.2242C45.8646 31.1795 45.9561 31.1287 46.0597 31.0982C46.265 31.0271 46.4662 30.9865 46.7121 31.0088L46.5983 31.0373C46.8584 30.8706 47.1551 30.7344 47.4783 30.6999C47.8014 30.6633 48.1327 30.7629 48.3867 30.9417C48.6448 31.1186 48.8379 31.3604 48.9944 31.6144C49.1508 31.8685 49.2687 32.1428 49.3541 32.4233L49.3581 32.4253Z" fill="#2A2928"/>
<path id="Vector_12" d="M46.8582 25.2596C46.8582 25.2596 46.8684 25.2677 46.8623 25.2759C46.8582 25.2799 46.8521 25.282 46.846 25.284C46.8338 25.286 46.8237 25.2881 46.8115 25.2881H46.7444L46.6123 25.284L46.3501 25.2718C46.1774 25.2657 46.0047 25.2616 45.8339 25.2718C45.4945 25.284 45.1592 25.3328 44.8462 25.4242C44.5353 25.5218 44.2427 25.6579 43.9947 25.8551C43.8748 25.9526 43.7407 26.0624 43.6655 26.166C43.6269 26.2127 43.6086 26.2717 43.6147 26.2514C43.6147 26.2432 43.6045 26.2107 43.6005 26.2067C43.5964 26.2006 43.6005 26.2067 43.6228 26.2168C43.7041 26.2575 43.8748 26.2778 44.0293 26.2798C44.1878 26.2839 44.3524 26.2676 44.519 26.2534C44.8503 26.2229 45.1816 26.1518 45.5088 26.0725C45.8339 25.9851 46.1571 25.8815 46.4477 25.723C46.592 25.6437 46.7302 25.5502 46.8277 25.4263C46.9273 25.3063 46.968 25.1336 46.907 24.9629C46.9578 25.034 46.9964 25.1214 47.0045 25.2169C47.0106 25.3124 46.9883 25.41 46.9476 25.4974C46.8663 25.6742 46.7261 25.8083 46.5859 25.9282C46.2953 26.1579 45.966 26.3205 45.6287 26.4485C45.2913 26.5806 44.9397 26.666 44.58 26.729C44.3991 26.7574 44.2162 26.7737 44.0272 26.7757C43.8342 26.7716 43.6472 26.7757 43.4074 26.6761C43.3484 26.6497 43.2794 26.605 43.2184 26.5339C43.1554 26.4648 43.1107 26.3448 43.1168 26.2493C43.129 26.0522 43.2123 25.9546 43.2773 25.8652C43.4175 25.6945 43.5598 25.5827 43.7163 25.471C44.0333 25.2576 44.391 25.1052 44.7568 25.0421C45.1226 24.971 45.4925 24.9771 45.8482 25.0259C46.027 25.0523 46.2018 25.0869 46.3725 25.1356L46.6265 25.2108L46.7525 25.2515L46.8155 25.2698C46.8257 25.2718 46.8359 25.2738 46.846 25.2759C46.8562 25.2779 46.8663 25.2738 46.8582 25.2616V25.2596Z" fill="#2A2928"/>
<path id="Vector_13" d="M45.6003 27.1009C45.6247 27.4139 45.7832 27.6842 45.956 27.926C45.9986 27.987 46.0474 28.0439 46.0962 28.1008L46.1694 28.1862C46.1917 28.2105 46.2161 28.2309 46.2425 28.2573C46.3543 28.3569 46.4742 28.4544 46.5941 28.552C46.712 28.6536 46.8319 28.7532 46.9518 28.8629C46.9823 28.8914 47.0128 28.9178 47.0453 28.9544L47.0697 28.9828C47.0819 28.997 47.094 29.0153 47.1042 29.0316C47.1205 29.06 47.1327 29.0804 47.1449 29.1088C47.1936 29.2125 47.2079 29.3405 47.1916 29.4502C47.1753 29.562 47.1367 29.6575 47.0961 29.7388C47.0758 29.7795 47.0534 29.8201 47.031 29.8567L47.0128 29.8872C46.9924 29.9177 46.964 29.9482 46.9294 29.9705C46.8603 30.0172 46.775 30.0315 46.6977 30.0152C46.6205 29.999 46.5433 29.9482 46.4986 29.8709C46.4762 29.8323 46.464 29.7917 46.46 29.7531C46.46 29.747 46.4579 29.749 46.4579 29.7449C46.4559 29.7388 46.4518 29.7307 46.4498 29.7348C46.4498 29.7348 46.46 29.751 46.4884 29.7591C46.5148 29.7673 46.5413 29.7591 46.5413 29.7591C46.5413 29.7591 46.5026 29.7896 46.4742 29.8384C46.4417 29.8852 46.4132 29.9441 46.3848 30.0051C46.3705 30.0355 46.3584 30.0701 46.3462 30.1006L46.336 30.125L46.3299 30.1412L46.3136 30.1758C46.2893 30.2225 46.2567 30.2652 46.2181 30.2977C46.0576 30.4257 45.8848 30.4257 45.7324 30.3648L45.517 30.251C45.452 30.2184 45.3869 30.19 45.3239 30.1656C45.1979 30.1148 45.0618 30.0803 44.9703 30.0843C44.9236 30.0843 44.9012 30.0945 44.8931 30.1006C44.8931 30.0924 44.8606 30.1392 44.8565 30.1595C44.8524 30.1676 44.8565 30.1758 44.8443 30.1372C44.8362 30.1168 44.8179 30.0965 44.7935 30.0802C44.7793 30.0742 44.7752 30.0701 44.765 30.0681C44.7549 30.066 44.7467 30.0681 44.7488 30.066C44.7325 30.0701 44.8016 30.0599 44.8524 30.0335C44.8524 30.0335 44.889 30.0172 44.9073 30.0112C44.9297 30.003 44.952 29.999 44.9723 29.9969C45.015 29.9908 45.0557 29.9929 45.0983 30.001C45.141 30.0112 45.1878 30.0233 45.2426 30.064C45.2975 30.1006 45.3544 30.1961 45.3483 30.2794C45.3483 30.3058 45.3483 30.3038 45.3483 30.3119V30.3282L45.3402 30.3648C45.3361 30.3912 45.33 30.4176 45.3219 30.4481C45.3056 30.507 45.2711 30.5721 45.2284 30.6229C45.139 30.7245 45.0394 30.7631 44.954 30.7976C44.8667 30.8281 44.7854 30.8485 44.702 30.8647L44.7203 30.8586C44.6146 30.8871 44.5313 30.8932 44.4338 30.8891C44.3403 30.881 44.2427 30.8606 44.1554 30.8139C43.9724 30.7265 43.8668 30.5456 43.8282 30.3851C43.7855 30.2205 43.7794 30.0579 43.7956 29.9014C43.8058 29.7449 43.8444 29.5925 43.8769 29.4441C43.883 29.5986 43.8891 29.751 43.9094 29.8994C43.9298 30.0477 43.9643 30.192 44.0212 30.314C44.0781 30.44 44.1675 30.5274 44.2712 30.5599C44.322 30.5782 44.3789 30.5802 44.4378 30.5782C44.4927 30.5721 44.5618 30.5558 44.6025 30.5375L44.6207 30.5314C44.7528 30.4928 44.9032 30.4237 44.9236 30.377C44.9297 30.3668 44.9297 30.3607 44.9317 30.3444C44.9317 30.3363 44.9337 30.3262 44.9337 30.314V30.2936V30.2814C44.9337 30.2794 44.9337 30.2672 44.9337 30.2855C44.9297 30.3302 44.9642 30.3892 44.9886 30.4014C45.0109 30.4196 45.0211 30.4196 45.0252 30.4217C45.0292 30.4217 45.0313 30.4217 45.0353 30.4237C45.0374 30.4237 45.0394 30.4237 45.0455 30.4237C44.9581 30.4623 44.8788 30.5172 44.7061 30.5131C44.6878 30.5131 44.6614 30.5091 44.6329 30.4989C44.6045 30.4887 44.5821 30.4847 44.5516 30.4644C44.4947 30.4298 44.4521 30.377 44.4256 30.3221C44.3789 30.2123 44.3931 30.1392 44.4013 30.0721C44.4297 29.9421 44.4704 29.8425 44.5903 29.7327C44.702 29.6372 44.8382 29.6047 44.9459 29.6006C45.1654 29.5925 45.3361 29.6474 45.5007 29.7043C45.582 29.7348 45.6592 29.7673 45.7344 29.8039L45.8462 29.8587L45.9336 29.9055C45.9234 29.9055 45.9275 29.8953 45.8889 29.9217C45.8808 29.9299 45.8706 29.94 45.8665 29.9522C45.8665 29.9542 45.8645 29.9583 45.8625 29.9603C45.8625 29.9603 45.8665 29.9522 45.8665 29.9482L45.8787 29.9177C45.895 29.8791 45.9113 29.8384 45.9295 29.7998C45.9682 29.7205 46.0088 29.6413 46.0657 29.56C46.1226 29.4807 46.1897 29.3913 46.3299 29.3202C46.397 29.2856 46.5047 29.2633 46.6083 29.2917C46.712 29.3181 46.7872 29.3852 46.8319 29.4482C46.8807 29.5132 46.905 29.5803 46.9172 29.6494L46.9254 29.7002C46.9233 29.6799 46.9152 29.6596 46.903 29.6372C46.8786 29.5945 46.8359 29.5681 46.7953 29.56C46.7547 29.5519 46.712 29.56 46.6754 29.5844C46.6571 29.5966 46.6429 29.6108 46.6327 29.627L46.6469 29.6088C46.6673 29.5803 46.6835 29.5539 46.6998 29.5254C46.7323 29.4706 46.7526 29.4218 46.7628 29.3791C46.7709 29.3364 46.7709 29.3039 46.7587 29.2633C46.7567 29.2551 46.7506 29.2409 46.7486 29.2348L46.7364 29.2186C46.7181 29.1962 46.6937 29.1678 46.6693 29.1393C46.5697 29.0296 46.46 28.9157 46.3543 28.804C46.2486 28.6902 46.1429 28.5743 46.0373 28.4504C45.9194 28.3122 45.8523 28.178 45.7771 28.0297C45.706 27.8854 45.6471 27.733 45.6125 27.5744C45.578 27.4179 45.5637 27.2533 45.5983 27.0989L45.6003 27.1009Z" fill="#2A2928"/>
</g>
</g>
<defs>
<filter id="filter0_d_670_1863" x="2.94653" y="2.28839" width="74.8473" height="74.7274" filterUnits="userSpaceOnUse" color-interpolation-filters="sRGB">
<feFlood flood-opacity="0" result="BackgroundImageFix"/>
<feColorMatrix in="SourceAlpha" type="matrix" values="0 0 0 0 0 0 0 0 0 0 0 0 0 0 0 0 0 0 127 0" result="hardAlpha"/>
<feOffset dx="1.09541" dy="0.243875"/>
<feGaussianBlur stdDeviation="0.48775"/>
<feColorMatrix type="matrix" values="0 0 0 0 0.054902 0 0 0 0 0.054902 0 0 0 0 0.054902 0 0 0 0.49 0"/>
<feBlend mode="normal" in2="BackgroundImageFix" result="effect1_dropShadow_670_1863"/>
<feBlend mode="normal" in="SourceGraphic" in2="effect1_dropShadow_670_1863" result="shape"/>
</filter>
</defs>
</svg>
