<svg width="454" height="283" viewBox="0 0 454 283" fill="none" xmlns="http://www.w3.org/2000/svg">
<g filter="url(#filter0_d_1571_388)">
<path d="M23 100.339H71.8334L100.57 148.395L129.307 100.339H177.849L122.511 183.054V242.664H78.4351V183.054L23 100.339Z" fill="white"/>
<path d="M167.753 191.404C167.753 175.676 173.06 162.731 183.674 152.57C194.289 142.344 208.625 137.231 226.683 137.231C247.329 137.231 262.928 143.217 273.477 155.191C281.956 164.835 286.195 176.712 286.195 190.821C286.195 206.678 280.92 219.688 270.371 229.849C259.886 239.946 245.355 244.994 226.78 244.994C210.211 244.994 196.813 240.787 186.587 232.373C174.031 221.953 167.753 208.296 167.753 191.404ZM207.363 191.307C207.363 200.497 209.208 207.293 212.897 211.694C216.651 216.095 221.343 218.296 226.974 218.296C232.67 218.296 237.33 216.128 240.954 211.791C244.643 207.455 246.488 200.497 246.488 190.918C246.488 181.986 244.643 175.352 240.954 171.016C237.265 166.615 232.702 164.414 227.265 164.414C221.505 164.414 216.748 166.647 212.994 171.113C209.24 175.514 207.363 182.245 207.363 191.307Z" fill="white"/>
<path d="M413.861 242.664H376.969V225.966C371.468 232.826 365.902 237.713 360.271 240.625C354.704 243.538 347.844 244.994 339.689 244.994C328.815 244.994 320.272 241.758 314.059 235.286C307.91 228.749 304.836 218.717 304.836 205.19V139.561H344.543V196.258C344.543 202.73 345.74 207.325 348.135 210.044C350.53 212.762 353.895 214.121 358.232 214.121C362.957 214.121 366.808 212.309 369.785 208.685C372.827 205.06 374.348 198.556 374.348 189.171V139.561H413.861V242.664Z" fill="white"/>
</g>
<path d="M41.1268 75.0158C39.7587 75.0158 39.0747 74.4743 39.0747 73.3912C39.0747 72.3082 39.7872 70.9686 41.2123 69.3726C42.5234 67.9475 44.661 66.4369 47.6251 64.8409C50.5892 63.1878 53.9809 61.7342 57.8 60.4802C58.6551 60.1952 59.3391 60.0526 59.8521 60.0526C60.5362 60.0526 60.8782 60.1952 60.8782 60.4802C60.8782 60.7652 60.5362 60.9932 59.8521 61.1642C57.458 61.7912 55.0924 62.7033 52.7553 63.9003C50.4182 65.0404 48.3376 66.2659 46.5135 67.577C43.6064 69.6861 42.1528 71.1396 42.1528 71.9377C42.1528 72.3937 42.6089 72.6217 43.5209 72.6217C45.516 72.6217 48.5941 71.3961 52.7553 68.945C55.4914 67.349 58.085 65.5534 60.5362 63.5583C62.9873 61.5062 64.9539 59.4826 66.4359 57.4875C67.975 55.4924 68.7445 53.6969 68.7445 52.1008C68.7445 50.2767 67.6615 48.8516 65.4954 47.8256C63.4433 48.9087 61.3057 49.9632 59.0826 50.9892C56.8595 51.9583 54.7504 52.8418 52.7553 53.6399C50.7602 54.4379 49.0216 55.0364 47.5396 55.4354C46.1145 55.8345 45.1455 55.977 44.6325 55.863C42.9224 55.5209 42.0673 54.8939 42.0673 53.9819C42.0673 53.1838 42.6089 52.2718 43.6919 51.2458C44.832 50.2197 46.086 49.2792 47.4541 48.4241C48.8791 47.5691 50.0192 46.9991 50.8742 46.7141C54.1234 45.574 57.23 45.004 60.1941 45.004C62.2462 45.004 64.1558 45.3175 65.9229 45.9445C67.975 44.9185 70.0841 43.4649 72.2502 41.5838C74.4733 39.7027 76.4399 37.6792 78.1499 35.5131C79.86 33.347 80.9716 31.3234 81.4846 29.4423C81.7696 28.1882 81.9121 27.2762 81.9121 26.7062C81.9121 24.4831 80.9716 22.8585 79.0905 21.8325C77.2664 20.7494 74.7868 20.2079 71.6516 20.2079C66.9204 20.2079 61.3912 21.2054 55.0639 23.2005C50.8457 24.5116 46.9411 26.0791 43.3499 27.9032C39.8157 29.6703 36.9656 31.4944 34.7995 33.3755C32.6334 35.1995 31.4649 36.9381 31.2939 38.5912C31.2369 39.1042 31.0373 39.5032 30.6953 39.7882C30.3533 40.0733 29.9828 40.2158 29.5838 40.2158C28.8998 40.2158 28.5577 39.7882 28.5577 38.9332C28.5577 36.0261 31.0944 32.9479 36.1676 29.6988C38.7327 27.9887 41.5828 26.4212 44.718 24.9961C47.9101 23.514 51.2162 22.2315 54.6364 21.1484C58.0565 20.0654 61.3912 19.2388 64.6403 18.6688C67.9465 18.0418 70.9676 17.7283 73.7037 17.7283C77.4089 17.7283 80.316 18.3268 82.4251 19.5238C84.5912 20.7209 85.6743 22.602 85.6743 25.1671C85.6743 26.1361 85.5033 27.2192 85.1612 28.4162C84.5342 30.7533 83.3087 33.0619 81.4846 35.3421C79.6605 37.6222 77.5229 39.7312 75.0718 41.6693C72.6207 43.5504 70.0841 45.175 67.462 46.543C70.6541 48.5951 72.2502 50.9037 72.2502 53.4689C72.2502 56.604 70.2551 59.8246 66.2649 63.1308C64.2698 64.7839 62.0752 66.3229 59.6811 67.748C57.287 69.173 54.8929 70.4271 52.4988 71.5102C50.1047 72.5932 47.9101 73.4482 45.915 74.0753C43.9199 74.7023 42.3238 75.0158 41.1268 75.0158ZM36.1676 72.2797C34.6855 71.9947 33.631 71.4817 33.0039 70.7406C32.4339 69.9996 32.1489 68.9165 32.1489 67.4915C32.1489 67.2065 32.1774 66.7789 32.2344 66.2089C32.2914 65.6389 32.3769 64.8979 32.4909 63.9858C32.7759 61.9907 33.517 59.6536 34.714 56.9745C35.9681 54.2954 37.4786 51.4738 39.2457 48.5096C41.0698 45.5455 43.0079 42.6384 45.06 39.7882C47.1691 36.9381 49.2497 34.3445 51.3017 32.0074L50.7887 32.0929C50.5037 32.0929 50.3612 31.9504 50.3612 31.6654C50.3612 31.4374 50.5607 30.9529 50.9597 30.2118C51.6438 28.9578 52.4418 28.0172 53.3538 27.3902C53.8099 27.0482 54.1519 26.7917 54.3799 26.6207C54.6079 26.4497 54.7504 26.3357 54.8074 26.2786C55.0924 25.9936 55.5484 25.8511 56.1755 25.8511C56.9165 25.8511 57.6005 26.0506 58.2276 26.4497C58.9116 26.8487 59.2536 27.2477 59.2536 27.6467C59.2536 27.8177 59.1111 28.0457 58.8261 28.3307C56.318 30.5538 53.3538 33.8885 49.9337 38.3347C47.5966 41.3558 45.402 44.4055 43.3499 47.4836C41.2978 50.5617 39.5877 53.3833 38.2197 55.9485C36.9086 58.5136 36.1391 60.5942 35.9111 62.1902L35.4835 63.9003C35.4265 64.0143 35.3695 64.2138 35.3125 64.4988C35.3125 64.7839 35.2555 65.1544 35.1415 65.6104C34.9135 66.3514 34.7995 67.0925 34.7995 67.8335C34.7995 69.0875 35.284 69.8571 36.2531 70.1421C36.9941 70.2561 37.3646 70.6836 37.3646 71.4246C37.3646 72.1087 36.9656 72.3937 36.1676 72.2797ZM47.2831 53.4689C47.5111 53.5829 47.7391 53.6399 47.9671 53.6399C48.8791 53.6399 50.5607 53.1553 53.0118 52.1863C54.6079 51.5593 56.2895 50.8467 58.0565 50.0487C59.8806 49.1937 61.7617 48.2531 63.6998 47.2271C63.2438 47.1131 62.7023 47.0276 62.0752 46.9706C61.5052 46.9136 60.9067 46.8851 60.2796 46.8851C57.9425 46.8851 55.6054 47.3981 53.2683 48.4241H53.1828C52.2708 48.8231 51.4158 49.2222 50.6177 49.6212C49.8767 50.0202 49.1927 50.3622 48.5656 50.6472C47.3686 51.2173 46.77 51.8728 46.77 52.6138C46.77 52.8988 46.9411 53.1838 47.2831 53.4689Z" fill="white"/>
<path d="M78.3437 70.0566C77.1466 70.0566 76.0921 69.7431 75.18 69.116C73.6979 67.976 72.9569 66.2659 72.9569 63.9858C72.9569 61.7057 73.755 59.2831 75.351 56.718C76.9471 54.1529 79.3697 51.7873 82.6188 49.6212C83.1889 49.2222 83.9584 49.0227 84.9274 49.0227C86.1815 49.0227 87.293 49.3647 88.2621 50.0487C89.2881 50.7327 89.6872 51.6163 89.4591 52.6993C89.0601 54.4664 88.1766 56.034 86.8085 57.402C85.4975 58.7701 83.9299 59.9956 82.1058 61.0787C80.3387 62.1047 78.5147 63.1023 76.6336 64.0713C76.5766 64.2423 76.5196 64.4133 76.4626 64.5843C76.4626 64.7554 76.4626 64.9264 76.4626 65.0974C76.4626 65.8954 76.7191 66.6079 77.2321 67.235C77.8021 67.805 78.5717 68.09 79.5407 68.09C80.2817 68.09 80.9088 67.976 81.4218 67.748C82.3338 67.406 83.0749 67.0925 83.6449 66.8074C84.2719 66.5224 84.9844 66.0949 85.7825 65.5249C86.5805 64.9549 87.6636 64.0998 89.0316 62.9598C89.6587 62.5038 90.0292 62.2757 90.1432 62.2757C90.4852 62.2757 90.5992 62.5323 90.4852 63.0453C89.9152 63.9573 88.9176 64.9549 87.4926 66.0379C86.1245 67.121 84.5854 68.0615 82.8754 68.8595C81.2223 69.6576 79.7117 70.0566 78.3437 70.0566ZM77.1466 61.7627C77.6026 61.7627 78.5432 61.3067 79.9682 60.3947C81.3933 59.4826 82.7328 58.4851 83.9869 57.402C86.153 55.4069 87.236 53.8679 87.236 52.7848C87.236 52.4998 87.1505 52.2433 86.9795 52.0153C86.8085 51.7303 86.552 51.5878 86.21 51.5878C85.127 51.5878 83.3029 52.8703 80.7378 55.4354C78.9707 57.1455 77.7736 59.2546 77.1466 61.7627Z" fill="white"/>
<path d="M91.2754 77.0679C90.9904 77.0679 90.8479 76.8114 90.8479 76.2984C90.8479 76.1844 90.8479 76.0134 90.8479 75.7853C90.9049 75.6143 90.9619 75.4148 91.0189 75.1868L94.6956 65.9524L99.0563 55.1789C98.3722 55.1219 97.3747 55.1504 96.0636 55.2644C94.7526 55.3214 93.641 55.4354 92.729 55.6064C92.387 55.6635 92.102 55.7205 91.874 55.7775C91.7029 55.7775 91.5604 55.7775 91.4464 55.7775C90.9904 55.7775 90.6769 55.5779 90.5059 55.1789C90.5629 54.8369 90.8764 54.5234 91.4464 54.2384C91.7315 54.1244 92.0735 54.0389 92.4725 53.9819C92.8715 53.8679 93.356 53.7539 93.926 53.6399C94.5531 53.5259 95.0946 53.4404 95.5506 53.3834C96.0636 53.3263 96.4342 53.2693 96.6622 53.2123C96.9472 53.1553 97.2322 53.0983 97.5172 53.0413C97.8022 52.9843 98.1442 52.9273 98.5433 52.8703C98.8853 52.8133 99.2558 52.7563 99.6548 52.6993C100.054 52.6423 100.481 52.5568 100.937 52.4428C101.393 51.8158 102.077 50.7042 102.989 49.1082C103.901 47.5121 105.07 45.403 106.495 42.7809C107.635 40.6718 108.547 39.0187 109.231 37.8217C109.972 36.5676 110.485 35.7411 110.77 35.3421C111.283 34.658 111.882 34.316 112.566 34.316C112.908 34.316 113.079 34.4585 113.079 34.7435C113.079 34.8005 112.936 35.171 112.651 35.8551C112.309 36.4251 111.739 37.4796 110.941 39.0187C110.143 40.5578 109.288 42.2394 108.376 44.0634C107.464 45.8875 106.638 47.5976 105.897 49.1937C105.156 50.7897 104.643 51.9583 104.358 52.6993C104.643 52.6423 104.956 52.6138 105.298 52.6138C105.697 52.6138 106.182 52.6138 106.752 52.6138C107.379 52.6138 107.949 52.6423 108.462 52.6993C109.032 52.6993 109.516 52.7278 109.915 52.7848C110.713 52.9558 111.112 53.1838 111.112 53.4689C111.112 53.5829 110.856 53.7824 110.343 54.0674C110.058 54.1814 109.516 54.2954 108.718 54.4094C107.92 54.5234 106.866 54.6374 105.555 54.7514C105.213 54.7514 104.842 54.7799 104.443 54.8369C104.044 54.8369 103.616 54.8654 103.16 54.9224C101.45 57.7155 99.1133 62.3612 96.1491 68.8595C95.0661 71.0256 94.2396 72.7072 93.6695 73.9043C93.0995 75.1013 92.7575 75.8138 92.6435 76.0419C92.1305 76.7259 91.6744 77.0679 91.2754 77.0679Z" fill="white"/>
<path d="M108.56 77.0679C108.275 77.0679 108.132 76.8114 108.132 76.2984C108.132 76.1844 108.132 76.0134 108.132 75.7853C108.189 75.6143 108.246 75.4148 108.303 75.1868L111.98 65.9524L116.341 55.1789C115.657 55.1219 114.659 55.1504 113.348 55.2644C112.037 55.3214 110.925 55.4354 110.013 55.6064C109.671 55.6635 109.386 55.7205 109.158 55.7775C108.987 55.7775 108.845 55.7775 108.731 55.7775C108.275 55.7775 107.961 55.5779 107.79 55.1789C107.847 54.8369 108.161 54.5234 108.731 54.2384C109.016 54.1244 109.358 54.0389 109.757 53.9819C110.156 53.8679 110.64 53.7539 111.211 53.6399C111.838 53.5259 112.379 53.4404 112.835 53.3834C113.348 53.3263 113.719 53.2693 113.947 53.2123C114.232 53.1553 114.517 53.0983 114.802 53.0413C115.087 52.9843 115.429 52.9273 115.828 52.8703C116.17 52.8133 116.54 52.7563 116.939 52.6993C117.338 52.6423 117.766 52.5568 118.222 52.4428C118.678 51.8158 119.362 50.7042 120.274 49.1082C121.186 47.5121 122.354 45.403 123.78 42.7809C124.92 40.6718 125.832 39.0187 126.516 37.8217C127.257 36.5676 127.77 35.7411 128.055 35.3421C128.568 34.658 129.166 34.316 129.85 34.316C130.192 34.316 130.363 34.4585 130.363 34.7435C130.363 34.8005 130.221 35.171 129.936 35.8551C129.594 36.4251 129.024 37.4796 128.226 39.0187C127.428 40.5578 126.573 42.2394 125.661 44.0634C124.749 45.8875 123.922 47.5976 123.181 49.1937C122.44 50.7897 121.927 51.9583 121.642 52.6993C121.927 52.6423 122.24 52.6138 122.583 52.6138C122.982 52.6138 123.466 52.6138 124.036 52.6138C124.663 52.6138 125.233 52.6423 125.746 52.6993C126.316 52.6993 126.801 52.7278 127.2 52.7848C127.998 52.9558 128.397 53.1838 128.397 53.4689C128.397 53.5829 128.14 53.7824 127.627 54.0674C127.342 54.1814 126.801 54.2954 126.003 54.4094C125.205 54.5234 124.15 54.6374 122.839 54.7514C122.497 54.7514 122.126 54.7799 121.727 54.8369C121.328 54.8369 120.901 54.8654 120.445 54.9224C118.735 57.7155 116.398 62.3612 113.434 68.8595C112.351 71.0256 111.524 72.7072 110.954 73.9043C110.384 75.1013 110.042 75.8138 109.928 76.0419C109.415 76.7259 108.959 77.0679 108.56 77.0679Z" fill="white"/>
<path d="M129.863 70.0566C128.666 70.0566 127.611 69.7431 126.699 69.116C125.217 67.976 124.476 66.2659 124.476 63.9858C124.476 61.7057 125.274 59.2831 126.87 56.718C128.466 54.1529 130.889 51.7873 134.138 49.6212C134.708 49.2222 135.478 49.0227 136.447 49.0227C137.701 49.0227 138.812 49.3647 139.781 50.0487C140.808 50.7327 141.207 51.6163 140.979 52.6993C140.579 54.4664 139.696 56.034 138.328 57.402C137.017 58.7701 135.449 59.9956 133.625 61.0787C131.858 62.1047 130.034 63.1023 128.153 64.0713C128.096 64.2423 128.039 64.4133 127.982 64.5843C127.982 64.7554 127.982 64.9264 127.982 65.0974C127.982 65.8954 128.238 66.6079 128.751 67.235C129.321 67.805 130.091 68.09 131.06 68.09C131.801 68.09 132.428 67.976 132.941 67.748C133.853 67.406 134.594 67.0925 135.164 66.8074C135.791 66.5224 136.504 66.0949 137.302 65.5249C138.1 64.9549 139.183 64.0998 140.551 62.9598C141.178 62.5038 141.549 62.2757 141.663 62.2757C142.005 62.2757 142.119 62.5323 142.005 63.0453C141.435 63.9573 140.437 64.9549 139.012 66.0379C137.644 67.121 136.105 68.0615 134.395 68.8595C132.742 69.6576 131.231 70.0566 129.863 70.0566ZM128.666 61.7627C129.122 61.7627 130.063 61.3067 131.488 60.3947C132.913 59.4826 134.252 58.4851 135.506 57.402C137.672 55.4069 138.755 53.8679 138.755 52.7848C138.755 52.4998 138.67 52.2433 138.499 52.0153C138.328 51.7303 138.071 51.5878 137.729 51.5878C136.646 51.5878 134.822 52.8703 132.257 55.4354C130.49 57.1455 129.293 59.2546 128.666 61.7627Z" fill="white"/>
<path d="M141.94 70.9116C141.199 70.9116 140.828 70.2561 140.828 68.945C140.828 67.862 141.085 66.8074 141.598 65.7814C142.909 63.2733 144.106 60.7937 145.189 58.3426C145.93 56.8605 146.614 55.4354 147.241 54.0674C147.925 52.6993 148.552 51.4453 149.122 50.3052C149.464 49.9632 149.806 49.7922 150.148 49.7922C150.889 49.7922 151.117 50.1342 150.832 50.8182C150.718 51.2173 150.547 51.7018 150.319 52.2718C150.148 52.7848 149.92 53.4119 149.635 54.1529C148.723 56.547 148.182 58.2286 148.011 59.1976C149.607 57.7725 151.231 56.4615 152.884 55.2644C154.594 54.0104 156.19 52.9843 157.672 52.1863C159.155 51.3883 160.409 50.9892 161.435 50.9892C162.347 50.9892 162.803 51.3598 162.803 52.1008C162.803 52.7278 162.518 53.4119 161.948 54.1529C161.378 54.8369 160.808 55.1789 160.238 55.1789C159.953 55.1789 159.725 55.0934 159.554 54.9224C159.383 54.8654 159.041 54.8369 158.528 54.8369C156.703 54.8369 154.794 55.7205 152.799 57.4875C150.69 59.2546 148.78 61.3922 147.07 63.9003C145.36 66.3514 144.106 68.489 143.308 70.3131C142.909 70.7121 142.453 70.9116 141.94 70.9116Z" fill="white"/>
<path d="M191.538 71.3391C190.341 71.1681 189.514 70.7406 189.058 70.0566C188.659 69.4296 188.46 68.546 188.46 67.406C188.46 67.121 188.488 66.6649 188.545 66.0379C188.659 65.4109 188.773 64.6413 188.887 63.7293V63.0453C188.887 62.2472 188.745 61.7912 188.46 61.6772C188.403 61.6202 188.26 61.5917 188.032 61.5917C187.633 61.5917 186.892 61.9622 185.809 62.7033C185.752 62.7603 185.439 63.0453 184.869 63.5583C184.299 64.0143 183.472 64.6984 182.389 65.6104C179.254 68.4035 177.116 69.6576 175.976 69.3726C174.779 69.0875 174.181 68.2895 174.181 66.9785C174.181 65.7244 174.637 64.2138 175.549 62.4468C176.29 60.8507 177.202 59.3116 178.285 57.8295C179.368 56.2905 180.223 55.2929 180.85 54.8369C181.306 54.5519 181.677 54.4094 181.962 54.4094C182.247 54.4094 182.503 54.5234 182.731 54.7514C182.845 54.8654 182.902 55.0364 182.902 55.2644C182.902 55.4924 182.76 55.749 182.475 56.034C181.905 56.604 181.363 57.4875 180.85 58.6846C180.337 59.8246 180.08 60.8507 180.08 61.7627C180.08 61.8767 180.08 62.0192 180.08 62.1902C180.137 62.3612 180.194 62.5608 180.251 62.7888C180.536 62.9598 180.85 63.0453 181.192 63.0453C181.876 63.0453 182.817 62.7033 184.014 62.0192C184.47 61.7342 185.097 61.3352 185.895 60.8222C186.693 60.2522 187.662 59.5396 188.802 58.6846C189.258 58.3426 189.771 58.1716 190.341 58.1716C190.968 58.1716 191.481 58.3996 191.88 58.8556C192.336 59.2546 192.564 59.8246 192.564 60.5657C192.564 60.6797 192.536 60.8507 192.479 61.0787C192.479 61.2497 192.45 61.4777 192.393 61.7627C192.279 62.2187 192.165 62.6463 192.051 63.0453C191.937 63.4443 191.851 63.8433 191.794 64.2423C191.737 64.4703 191.709 64.7839 191.709 65.1829C191.709 65.5249 191.709 65.9239 191.709 66.3799C191.709 67.634 192.365 68.261 193.676 68.261C194.246 68.261 194.816 68.1755 195.386 68.0045C196.013 67.7765 196.469 67.52 196.754 67.235C199.49 64.8409 202.169 61.7342 204.791 57.9151L204.706 56.889C204.649 56.319 204.763 55.7775 205.048 55.2644C205.333 54.6944 205.703 54.1244 206.159 53.5544C206.33 53.3263 206.558 53.2123 206.843 53.2123C207.128 53.2123 207.385 53.3548 207.613 53.6399C207.898 53.8679 208.04 54.1814 208.04 54.5804C208.04 54.8654 207.955 55.1789 207.784 55.5209C207.442 56.148 206.9 57.06 206.159 58.2571C205.418 59.3971 204.563 60.6512 203.594 62.0192C202.625 63.3873 201.656 64.6698 200.687 65.8669C199.718 67.064 198.834 68.0045 198.036 68.6885V68.774C197.067 69.6291 195.956 70.2846 194.702 70.7406C193.448 71.2536 192.393 71.4532 191.538 71.3391Z" fill="white"/>
<path d="M206.221 74.1608C205.024 74.1608 204.511 73.5622 204.682 72.3652C205.024 70.1991 205.622 68.033 206.477 65.8669C206.933 64.7269 207.503 63.4158 208.187 61.9337C208.928 60.4517 209.783 58.7986 210.752 56.9745C211.265 56.0055 211.693 55.1504 212.035 54.4094C212.434 53.6684 212.747 53.0698 212.975 52.6138C213.374 51.8158 213.773 50.9607 214.172 50.0487C214.628 49.1367 215.084 48.1391 215.54 47.0561C217.707 42.3249 219.559 38.6197 221.098 35.9406C222.694 33.2045 224.404 31.2664 226.228 30.1263C226.342 30.0123 226.656 30.0123 227.169 30.1263C227.682 30.1833 228.167 30.2973 228.623 30.4683C229.136 30.6393 229.449 30.8388 229.563 31.0669C229.734 31.4659 229.82 32.0359 229.82 32.7769C229.82 35.057 228.765 37.7932 226.656 40.9853C225.516 42.6954 224.062 44.5765 222.295 46.6286C220.585 48.6236 218.562 50.7897 216.225 53.1268L214.685 55.6064C212.975 58.3426 211.636 60.6797 210.667 62.6178C209.755 64.5558 209.413 66.2659 209.641 67.748C209.755 68.09 209.897 68.261 210.068 68.261C210.239 68.261 210.524 68.1185 210.923 67.8335C211.322 67.5485 211.721 67.2065 212.12 66.8074C212.576 66.4084 213.004 65.9239 213.403 65.3539C213.688 65.0689 213.916 64.7554 214.087 64.4133C214.315 64.0713 214.543 63.7578 214.771 63.4728C215.113 62.8458 215.455 62.3327 215.797 61.9337C216.88 60.1096 217.792 58.8271 218.533 58.0861C219.787 56.832 220.899 56.205 221.868 56.205C223.008 56.205 224.005 56.832 224.86 58.0861C225.772 59.2831 226.742 61.0217 227.768 63.3018C228.509 65.0119 229.193 66.3229 229.82 67.235C230.447 68.09 231.045 68.5175 231.615 68.5175C232.185 68.5175 232.841 68.1755 233.582 67.4915C234.266 66.8644 234.864 66.5224 235.377 66.4654C235.719 66.8644 235.691 67.3775 235.292 68.0045C234.893 68.5745 234.294 69.116 233.496 69.6291C232.755 70.1991 232.014 70.6551 231.273 70.9971C230.532 71.3391 229.962 71.4532 229.563 71.3391C227.967 70.8831 226.713 70.0851 225.801 68.945C224.946 67.748 224.091 66.2089 223.236 64.3278C222.951 63.7008 222.694 63.1593 222.466 62.7033C222.238 62.1902 222.01 61.7912 221.782 61.5062C221.383 60.9362 220.842 60.6512 220.158 60.6512C219.645 60.6512 219.046 60.9077 218.362 61.4207C217.678 61.9907 216.994 62.6748 216.31 63.4728C215.626 64.2138 214.97 65.1259 214.343 66.2089C213.944 66.7789 213.631 67.235 213.403 67.577C213.232 67.862 213.089 68.0615 212.975 68.1755C212.69 68.5745 212.234 69.1445 211.607 69.8856C211.037 70.6836 210.353 71.6527 209.555 72.7927C209.27 73.1347 208.814 73.4482 208.187 73.7332C207.617 74.0183 207.047 74.1608 206.477 74.1608H206.221ZM216.652 49.6212C216.823 49.7352 217.251 49.4787 217.935 48.8517C218.619 48.1676 219.388 47.3126 220.243 46.2865C221.155 45.2035 222.039 44.0919 222.894 42.9519C223.806 41.7548 224.518 40.7003 225.031 39.7882C226.798 36.7671 227.682 34.772 227.682 33.803C227.682 33.404 227.54 33.119 227.255 32.9479C226.684 32.4919 225.915 32.7484 224.946 33.7175C223.977 34.6295 223.008 35.8551 222.039 37.3941C221.07 38.8762 220.243 40.3583 219.559 41.8403C219.16 42.7524 218.733 43.7784 218.277 44.9185C217.878 46.0585 217.536 47.0846 217.251 47.9966C216.966 48.8517 216.766 49.3932 216.652 49.6212Z" fill="white"/>
<path d="M242.087 70.0566C240.89 70.0566 239.835 69.7431 238.923 69.116C237.441 67.976 236.7 66.2659 236.7 63.9858C236.7 61.7057 237.498 59.2831 239.094 56.718C240.69 54.1529 243.113 51.7873 246.362 49.6212C246.932 49.2222 247.702 49.0227 248.671 49.0227C249.925 49.0227 251.036 49.3647 252.005 50.0487C253.031 50.7327 253.43 51.6163 253.202 52.6993C252.803 54.4664 251.92 56.034 250.552 57.402C249.241 58.7701 247.673 59.9956 245.849 61.0787C244.082 62.1047 242.258 63.1023 240.377 64.0713C240.32 64.2423 240.263 64.4133 240.206 64.5843C240.206 64.7554 240.206 64.9264 240.206 65.0974C240.206 65.8954 240.462 66.6079 240.975 67.235C241.545 67.805 242.315 68.09 243.284 68.09C244.025 68.09 244.652 67.976 245.165 67.748C246.077 67.406 246.818 67.0925 247.388 66.8074C248.015 66.5224 248.728 66.0949 249.526 65.5249C250.324 64.9549 251.407 64.0998 252.775 62.9598C253.402 62.5038 253.772 62.2757 253.886 62.2757C254.228 62.2757 254.342 62.5323 254.228 63.0453C253.658 63.9573 252.661 64.9549 251.236 66.0379C249.868 67.121 248.329 68.0615 246.618 68.8595C244.965 69.6576 243.455 70.0566 242.087 70.0566ZM240.89 61.7627C241.346 61.7627 242.286 61.3067 243.711 60.3947C245.136 59.4826 246.476 58.4851 247.73 57.402C249.896 55.4069 250.979 53.8679 250.979 52.7848C250.979 52.4998 250.894 52.2433 250.723 52.0153C250.552 51.7303 250.295 51.5878 249.953 51.5878C248.87 51.5878 247.046 52.8703 244.481 55.4354C242.714 57.1455 241.517 59.2546 240.89 61.7627Z" fill="white"/>
<path d="M254.591 70.4841C253.565 70.4841 253.052 70.0851 253.052 69.2871C253.052 68.774 253.223 68.1185 253.565 67.3205C253.964 66.5224 254.363 65.7529 254.762 65.0119C255.845 63.0738 256.843 61.1927 257.755 59.3686C258.667 57.5445 259.55 55.6064 260.405 53.5544C260.804 52.6423 261.403 52.1863 262.201 52.1863C263.056 52.1863 263.312 52.6993 262.97 53.7254C262.628 54.5804 262.286 55.3499 261.944 56.034C260.348 59.2831 259.55 61.4777 259.55 62.6178C259.55 63.1308 259.721 63.4443 260.063 63.5583C260.861 62.9313 261.46 62.4753 261.859 62.1902C262.258 61.8482 262.486 61.6487 262.543 61.5917C263.341 60.9647 264.224 60.2522 265.193 59.4541C266.22 58.5991 267.331 57.63 268.528 56.547C270.409 54.8369 271.977 53.9819 273.231 53.9819C274.77 53.9819 275.425 55.3784 275.197 58.1716C275.14 59.2546 275.14 60.3092 275.197 61.3352C275.254 61.5632 275.283 61.9052 275.283 62.3612C275.283 62.7603 275.283 63.2448 275.283 63.8148C275.283 64.3848 275.625 64.6698 276.309 64.6698C277.107 64.6698 277.848 64.4418 278.532 63.9858L280.413 62.7033L282.294 61.5062C282.408 61.4492 282.608 61.4207 282.893 61.4207C283.235 61.4207 283.235 61.6772 282.893 62.1902C279.302 66.6364 276.337 68.8595 274 68.8595C273.544 68.8595 273.088 68.774 272.632 68.603C272.233 68.432 271.948 67.9475 271.777 67.1495C271.606 66.2944 271.492 65.3824 271.435 64.4133C271.435 63.4443 271.435 62.7033 271.435 62.1902L271.521 59.3686C271.521 58.1716 271.207 57.573 270.58 57.573C269.098 57.573 265.45 60.6227 259.636 66.7219C259.18 67.292 258.467 68.0615 257.498 69.0305C256.529 69.9996 255.56 70.4841 254.591 70.4841Z" fill="white"/>
<path d="M306.808 50.3907C306.067 50.3907 305.696 50.2197 305.696 49.8777C305.696 49.5927 305.896 49.1937 306.295 48.6806C306.751 48.1106 307.264 47.6261 307.834 47.2271C309.088 46.429 310.057 45.745 310.741 45.175C311.482 44.605 312.366 43.6359 313.392 42.2679C313.449 42.3819 313.477 42.6099 313.477 42.9519C313.477 43.6929 313.164 44.605 312.537 45.688C311.967 46.7141 311.311 47.6546 310.57 48.5096C309.829 49.3647 309.173 49.9062 308.603 50.1342C308.09 50.3052 307.492 50.3907 306.808 50.3907ZM299.198 71.3391C298.742 71.3391 298.314 71.1681 297.915 70.8261C297.516 70.4841 297.317 70.0281 297.317 69.4581C297.317 68.261 298.143 66.0664 299.796 62.8743L300.737 60.9932C300.851 60.8792 300.994 60.5942 301.165 60.1381C301.393 59.6821 301.706 59.0836 302.105 58.3426C302.504 57.5445 302.818 56.832 303.046 56.205C303.274 55.5779 303.445 54.9794 303.559 54.4094C303.559 54.3524 303.673 54.2384 303.901 54.0674C304.129 53.8964 304.357 53.7539 304.585 53.6399L305.098 53.5544C305.554 53.5544 305.924 53.6399 306.209 53.8109C306.551 53.9819 306.665 54.2099 306.551 54.4949C306.152 55.3499 305.81 56.091 305.525 56.718C305.24 57.345 305.012 57.8866 304.841 58.3426H304.756C304.129 59.7676 303.587 61.1357 303.131 62.4468C302.732 63.7008 302.561 64.8979 302.618 66.0379L302.704 68.3465C302.647 68.9165 302.447 69.4011 302.105 69.8001C301.877 69.9711 301.564 70.1706 301.165 70.3986C300.766 70.6836 300.252 70.9686 299.625 71.2536C299.568 71.3106 299.426 71.3391 299.198 71.3391Z" fill="white"/>
<path d="M308.208 77.0679C307.923 77.0679 307.78 76.8114 307.78 76.2984C307.78 76.1844 307.78 76.0134 307.78 75.7853C307.837 75.6143 307.894 75.4148 307.951 75.1868L311.628 65.9524L315.989 55.1789C315.305 55.1219 314.307 55.1504 312.996 55.2644C311.685 55.3214 310.573 55.4354 309.661 55.6064C309.319 55.6635 309.034 55.7205 308.806 55.7775C308.635 55.7775 308.493 55.7775 308.379 55.7775C307.923 55.7775 307.609 55.5779 307.438 55.1789C307.495 54.8369 307.809 54.5234 308.379 54.2384C308.664 54.1244 309.006 54.0389 309.405 53.9819C309.804 53.8679 310.288 53.7539 310.859 53.6399C311.486 53.5259 312.027 53.4404 312.483 53.3834C312.996 53.3263 313.367 53.2693 313.595 53.2123C313.88 53.1553 314.165 53.0983 314.45 53.0413C314.735 52.9843 315.077 52.9273 315.476 52.8703C315.818 52.8133 316.188 52.7563 316.587 52.6993C316.986 52.6423 317.414 52.5568 317.87 52.4428C318.326 51.8158 319.01 50.7042 319.922 49.1082C320.834 47.5121 322.002 45.403 323.428 42.7809C324.568 40.6718 325.48 39.0187 326.164 37.8217C326.905 36.5676 327.418 35.7411 327.703 35.3421C328.216 34.658 328.814 34.316 329.498 34.316C329.84 34.316 330.011 34.4585 330.011 34.7435C330.011 34.8005 329.869 35.171 329.584 35.8551C329.242 36.4251 328.672 37.4796 327.874 39.0187C327.076 40.5578 326.221 42.2394 325.309 44.0634C324.397 45.8875 323.57 47.5976 322.829 49.1937C322.088 50.7897 321.575 51.9583 321.29 52.6993C321.575 52.6423 321.888 52.6138 322.23 52.6138C322.63 52.6138 323.114 52.6138 323.684 52.6138C324.311 52.6138 324.881 52.6423 325.394 52.6993C325.964 52.6993 326.449 52.7278 326.848 52.7848C327.646 52.9558 328.045 53.1838 328.045 53.4689C328.045 53.5829 327.788 53.7824 327.275 54.0674C326.99 54.1814 326.449 54.2954 325.651 54.4094C324.853 54.5234 323.798 54.6374 322.487 54.7514C322.145 54.7514 321.774 54.7799 321.375 54.8369C320.976 54.8369 320.549 54.8654 320.093 54.9224C318.383 57.7155 316.046 62.3612 313.082 68.8595C311.999 71.0256 311.172 72.7072 310.602 73.9043C310.032 75.1013 309.69 75.8138 309.576 76.0419C309.063 76.7259 308.607 77.0679 308.208 77.0679Z" fill="white"/>
<path d="M322.414 72.7072C321.502 72.7072 320.704 72.6217 320.02 72.4507C319.393 72.2797 319.08 72.0517 319.08 71.7667C319.08 71.3106 319.536 71.0541 320.448 70.9971C321.303 70.9401 321.873 70.8546 322.158 70.7406C322.671 70.6266 323.269 70.5411 323.953 70.4841C324.58 70.3701 325.093 70.2846 325.492 70.2276C328.228 69.4296 329.597 68.204 329.597 66.5509C329.597 65.4109 328.998 63.9573 327.801 62.1902C327.06 61.1072 326.689 59.9101 326.689 58.5991C326.689 57.003 327.174 55.4354 328.143 53.8964C329.169 52.3573 330.423 51.0177 331.905 49.8777C333.444 48.6806 334.983 47.8826 336.522 47.4836C337.206 47.3126 337.919 47.2271 338.66 47.2271C339.857 47.2271 340.712 47.5121 341.225 48.0821C341.567 48.4241 341.738 49.1652 341.738 50.3052C341.738 51.1603 341.596 52.0438 341.311 52.9558C341.026 53.8109 340.627 54.5234 340.113 55.0934C339.828 55.3784 339.6 55.5209 339.429 55.5209C339.144 55.5209 339.002 55.1219 339.002 54.3239L339.087 52.6138C339.144 52.1578 339.173 51.7588 339.173 51.4168C339.23 51.0747 339.258 50.7897 339.258 50.5617C339.258 49.5927 339.059 49.0227 338.66 48.8517C338.204 48.7376 337.89 48.6806 337.719 48.6806C336.522 48.6806 335.24 49.2222 333.872 50.3052C332.504 51.3883 331.392 52.6423 330.537 54.0674C330.195 54.5804 330.024 55.2074 330.024 55.9485C330.024 56.8605 330.252 57.9436 330.708 59.1976C331.221 60.3947 331.592 61.2782 331.82 61.8482C332.39 63.1023 332.817 64.1853 333.102 65.0974C333.444 66.0094 333.615 66.8074 333.615 67.4915C333.615 67.8335 333.587 68.09 333.53 68.261C333.815 68.147 334.499 67.976 335.582 67.748C336.551 67.52 337.377 67.406 338.061 67.406C338.46 67.406 338.66 67.4915 338.66 67.6625C338.66 67.7195 338.489 67.919 338.147 68.261C337.976 68.432 337.434 68.717 336.522 69.116C335.667 69.4581 334.641 69.8286 333.444 70.2276C332.304 70.6266 331.164 70.9971 330.024 71.3391C328.884 71.6812 327.915 71.9377 327.117 72.1087C325.749 72.5077 324.181 72.7072 322.414 72.7072Z" fill="white"/>
<path d="M358.855 70.5696C356.632 70.5696 355.52 69.5721 355.52 67.577C355.52 67.463 355.52 67.2635 355.52 66.9785C355.577 66.6934 355.634 66.3514 355.691 65.9524C356.261 63.6153 357.401 61.3637 359.111 59.1976C360.878 56.9745 362.902 55.0364 365.182 53.3834C366.037 52.6993 367.405 52.3573 369.286 52.3573C370.369 52.3573 371.31 52.5283 372.108 52.8703C372.963 53.1553 373.562 53.6114 373.904 54.2384C374.246 54.8084 374.417 55.4639 374.417 56.205C374.417 56.319 374.388 56.49 374.331 56.718C374.331 56.946 374.303 57.2025 374.246 57.4875C374.36 57.4305 374.531 57.402 374.759 57.402C375.044 57.402 375.386 57.3735 375.785 57.3165C376.184 57.2595 376.554 57.2025 376.896 57.1455C377.295 57.0885 377.694 57.06 378.093 57.06H378.435C379.062 57.06 379.119 57.3165 378.606 57.8295C378.15 58.2856 377.523 58.5706 376.725 58.6846L373.818 59.0266C373.248 60.6227 372.25 62.2187 370.825 63.8148C369.457 65.4109 367.918 66.8074 366.208 68.0045C364.555 69.1445 362.988 69.8856 361.505 70.2276C360.65 70.4556 359.767 70.5696 358.855 70.5696ZM369.799 57.8295C370.141 57.8295 370.54 57.8295 370.996 57.8295C371.509 57.7725 372.079 57.7155 372.706 57.6585C372.763 57.5445 372.792 57.288 372.792 56.889C372.792 55.863 372.364 55.1504 371.509 54.7514C371.053 54.4664 370.483 54.3239 369.799 54.3239C368.944 54.3239 368.061 54.6089 367.149 55.1789C366.294 55.692 365.382 56.376 364.413 57.231C365.61 57.63 367.405 57.8295 369.799 57.8295ZM361.42 67.577C361.99 67.577 362.788 67.3205 363.814 66.8074C364.897 66.2374 366.009 65.4964 367.149 64.5843C368.289 63.6723 369.315 62.7033 370.227 61.6772C370.512 61.3922 370.797 61.0502 371.082 60.6512C371.367 60.1952 371.68 59.7391 372.022 59.2831L369.97 59.5396C366.778 59.9956 363.928 60.2522 361.42 60.3092C360.166 62.3612 359.396 64.0713 359.111 65.4394C359.054 66.1804 359.254 66.7219 359.71 67.064C360.166 67.406 360.736 67.577 361.42 67.577Z" fill="white"/>
<path d="M376.668 70.4841C375.642 70.4841 375.129 70.0851 375.129 69.2871C375.129 68.774 375.3 68.1185 375.642 67.3205C376.041 66.5224 376.44 65.7529 376.839 65.0119C377.922 63.0738 378.919 61.1927 379.831 59.3686C380.743 57.5445 381.627 55.6064 382.482 53.5544C382.881 52.6423 383.479 52.1863 384.278 52.1863C385.133 52.1863 385.389 52.6993 385.047 53.7254C384.705 54.5804 384.363 55.3499 384.021 56.034C382.425 59.2831 381.627 61.4777 381.627 62.6178C381.627 63.1308 381.798 63.4443 382.14 63.5583C382.938 62.9313 383.536 62.4753 383.936 62.1902C384.335 61.8482 384.563 61.6487 384.62 61.5917C385.418 60.9647 386.301 60.2522 387.27 59.4541C388.296 58.5991 389.408 57.63 390.605 56.547C392.486 54.8369 394.053 53.9819 395.308 53.9819C396.847 53.9819 397.502 55.3784 397.274 58.1716C397.217 59.2546 397.217 60.3092 397.274 61.3352C397.331 61.5632 397.36 61.9052 397.36 62.3612C397.36 62.7603 397.36 63.2448 397.36 63.8148C397.36 64.3848 397.702 64.6698 398.386 64.6698C399.184 64.6698 399.925 64.4418 400.609 63.9858L402.49 62.7033L404.371 61.5062C404.485 61.4492 404.684 61.4207 404.969 61.4207C405.311 61.4207 405.311 61.6772 404.969 62.1902C401.378 66.6364 398.414 68.8595 396.077 68.8595C395.621 68.8595 395.165 68.774 394.709 68.603C394.31 68.432 394.025 67.9475 393.854 67.1495C393.683 66.2944 393.569 65.3824 393.512 64.4133C393.512 63.4443 393.512 62.7033 393.512 62.1902L393.597 59.3686C393.597 58.1716 393.284 57.573 392.657 57.573C391.175 57.573 387.527 60.6227 381.712 66.7219C381.256 67.292 380.544 68.0615 379.575 69.0305C378.606 69.9996 377.637 70.4841 376.668 70.4841Z" fill="white"/>
<path d="M422.545 11.9142C425.49 20.1428 434.203 27.8471 434.817 28.8555C434.817 19.7798 461.2 9.49391 450.769 2.83836C444.253 -1.31933 436.862 5.05687 434.817 9.49391C435.021 8.48549 434.301 5.15122 431.749 1.62825C428.681 -2.60711 418.864 1.6283 422.545 11.9142Z" fill="white"/>
<defs>
<filter id="filter0_d_1571_388" x="0.196897" y="80.3859" width="447.869" height="201.663" filterUnits="userSpaceOnUse" color-interpolation-filters="sRGB">
<feFlood flood-opacity="0" result="BackgroundImageFix"/>
<feColorMatrix in="SourceAlpha" type="matrix" values="0 0 0 0 0 0 0 0 0 0 0 0 0 0 0 0 0 0 127 0" result="hardAlpha"/>
<feOffset dx="5.70077" dy="8.55116"/>
<feGaussianBlur stdDeviation="14.2519"/>
<feComposite in2="hardAlpha" operator="out"/>
<feColorMatrix type="matrix" values="0 0 0 0 0 0 0 0 0 0 0 0 0 0 0 0 0 0 1 0"/>
<feBlend mode="normal" in2="BackgroundImageFix" result="effect1_dropShadow_1571_388"/>
<feBlend mode="normal" in="SourceGraphic" in2="effect1_dropShadow_1571_388" result="shape"/>
</filter>
</defs>
</svg>
